<svg xmlns="http://www.w3.org/2000/svg" fill="none" viewBox="0 0 24 116">
  <path fill="currentColor" d="M11.646 112.354a.5.5 0 0 0 .708 0l3.182-3.182a.501.501 0 0 0-.708-.708L12 111.293l-2.828-2.829a.5.5 0 0 0-.708.708zM11.5 4v1.929h1V4zm0 5.786v3.857h1V9.786zm0 7.714v3.857h1V17.5zm0 7.714v3.857h1v-3.857zm0 7.715v3.857h1v-3.857zm0 7.714V44.5h1v-3.857zm0 7.714v3.857h1v-3.857zm0 7.714v3.858h1V56.07zm0 7.715v3.857h1v-3.857zm0 7.714v3.857h1V71.5zm0 7.714v3.857h1v-3.857zm0 7.715v3.857h1v-3.857zm0 7.714V98.5h1v-3.857zm0 7.714v3.857h1v-3.857zm0 7.714V112h1v-1.929zm.146 2.283a.5.5 0 0 0 .708 0l3.182-3.182a.501.501 0 0 0-.708-.708L12 111.293l-2.828-2.829a.5.5 0 0 0-.708.708zM11.5 4v1.929h1V4zm0 5.786v3.857h1V9.786zm0 7.714v3.857h1V17.5zm0 7.714v3.857h1v-3.857zm0 7.715v3.857h1v-3.857zm0 7.714V44.5h1v-3.857zm0 7.714v3.857h1v-3.857zm0 7.714v3.858h1V56.07zm0 7.715v3.857h1v-3.857zm0 7.714v3.857h1V71.5zm0 7.714v3.857h1v-3.857zm0 7.715v3.857h1v-3.857zm0 7.714V98.5h1v-3.857zm0 7.714v3.857h1v-3.857zm0 7.714V112h1v-1.929z"/>
</svg>
