<svg xmlns="http://www.w3.org/2000/svg" fill="none" viewBox="0 0 16 16">
  <path fill="currentColor" d="M2.666 4.665a2 2 0 0 1 2-2h2.667a.667.667 0 1 0 0-1.333H4.666a3.333 3.333 0 0 0-3.333 3.333v6.667a3.333 3.333 0 0 0 3.333 3.333h6.667a3.333 3.333 0 0 0 3.333-3.333V8.665a.667.667 0 1 0-1.333 0v2.667a2 2 0 0 1-2 2H4.666a2 2 0 0 1-2-2z"/>
  <path fill="currentColor" d="M9.333 1.999c0-.368.298-.667.667-.667h4c.368 0 .666.299.666.667v4a.667.667 0 1 1-1.333 0v-2.39L8.471 8.47a.667.667 0 0 1-.943-.943l4.862-4.862H10A.667.667 0 0 1 9.333 2"/>
</svg>
