<svg xmlns="http://www.w3.org/2000/svg" fill="none" viewBox="0 0 16 16">
  <path fill="currentColor" fill-rule="evenodd" d="M8.5 1.834a.5.5 0 0 0-1 0v1.667a.5.5 0 0 0 1 0zm0 10.833a.5.5 0 0 0-1 0v1.5a.5.5 0 1 0 1 0zm4.214-9.38a.5.5 0 0 1 0 .707l-1.178 1.178a.5.5 0 1 1-.707-.707l1.178-1.178a.5.5 0 0 1 .707 0m-7.66 8.367a.5.5 0 1 0-.707-.707l-1.061 1.06a.5.5 0 1 0 .707.708zm9.613-3.653a.5.5 0 0 1-.5.5H12.5a.5.5 0 0 1 0-1h1.667a.5.5 0 0 1 .5.5m-11.334.5a.5.5 0 1 0 0-1h-1.5a.5.5 0 0 0 0 1zm9.381 4.214a.5.5 0 0 1-.707 0l-1.178-1.179a.5.5 0 1 1 .707-.707l1.178 1.179a.5.5 0 0 1 0 .707m-8.367-7.66a.5.5 0 1 0 .707-.708l-1.061-1.06a.5.5 0 1 0-.707.707l1.06 1.06Z" clip-rule="evenodd"/>
</svg>
