<svg xmlns="http://www.w3.org/2000/svg" fill="none" viewBox="0 0 40 40">
  <path fill="currentColor" d="M15.865 5.443a8.33 8.33 0 0 1 8.27 0l6.322 3.613a5.71 5.71 0 0 1 2.876 4.956v4.536a19.04 19.04 0 0 1-11.536 17.495 4.56 4.56 0 0 1-3.594 0A19.04 19.04 0 0 1 6.667 18.548v-4.536a5.71 5.71 0 0 1 2.875-4.956z"/>
  <path fill="background" fill-rule="evenodd" d="M18.334 20a1.667 1.667 0 1 0 3.333 0v-6.667a1.667 1.667 0 1 0-3.334 0zm0 6.667a1.667 1.667 0 1 1 3.333 0 1.667 1.667 0 0 1-3.334 0" clip-rule="evenodd"/>
</svg>
