<svg xmlns="http://www.w3.org/2000/svg" fill="none" viewBox="0 0 604 295">
  <g fill="currentColor" clip-path="url(#a)">
    <path d="M466.737 125.503q14.505 0 20.979-5.439 6.734-5.698 6.734-13.986v-1.813q0-9.842-6.475-15.8-6.216-5.956-17.871-5.957-10.878 0-20.461 5.699-9.584 5.439-16.317 15.799l-24.347-22.793q5.18-6.734 11.138-12.173 5.956-5.698 13.468-9.583 7.51-4.143 16.835-6.216 9.324-2.33 20.979-2.33 14.505 0 26.159 3.366 11.914 3.368 20.203 9.842 8.546 6.216 12.95 15.022 4.662 8.807 4.662 19.685 0 8.547-2.849 15.54-2.59 6.993-7.511 12.173a40.4 40.4 0 0 1-10.878 8.547q-6.216 3.108-13.21 4.403v1.554q8.03 1.554 14.764 5.18 6.993 3.367 11.914 8.806 5.18 5.44 8.029 12.95 2.849 7.253 2.849 16.577 0 12.172-4.921 22.015t-13.986 16.835q-9.066 6.993-21.757 10.878-12.69 3.626-27.972 3.626-13.727 0-24.346-2.849t-18.648-7.511q-7.77-4.921-13.727-11.137a92.3 92.3 0 0 1-10.102-13.209l28.75-22.274q5.957 11.136 14.504 18.389 8.806 6.993 23.569 6.993 13.21 0 20.461-6.475 7.512-6.735 7.511-18.13v-1.554q0-11.138-8.547-16.577-8.288-5.698-23.051-5.698h-16.317v-32.375zM321.279 237.91q-35.484 0-52.578-24.605-17.094-24.606-17.094-68.895t17.094-68.895 52.578-24.605 52.577 24.605q17.094 24.606 17.094 68.895t-17.094 68.895q-17.094 24.605-52.577 24.605m0-32.893q15.54 0 21.497-11.396t5.957-32.117v-34.188q0-20.72-5.957-32.116t-21.497-11.397T299.781 95.2t-5.957 32.116v34.188q0 20.72 5.957 32.117 5.958 11.396 21.498 11.396m-145.718 29.785v-34.707H96.047v-33.152l70.449-112.925h46.103V170.05h22.792v30.044h-22.792v34.707zm-48.433-64.751h48.433V94.163h-2.59z"/>
  </g>
  <path stroke="#fff" d="M82.064 194.16h474.442"/>
  <path fill="#263238" d="M543.188 141.3c-.394.027.122.877-.263.953-.507.098-.988-.275-1.287-.69-.3-.416-.511-.908-.896-1.25-.504-.446-1.214-.556-1.85-.776a5.28 5.28 0 0 1-3.143-2.974 5.27 5.27 0 0 1 .193-4.311l2.235-4.551c-.694-.436-.862-1.454-.486-2.181s1.174-1.171 1.984-1.299a3.79 3.79 0 0 1 3.259 1.076c.447.458.81 1.057 1.419 1.268.535.183 1.125.018 1.685.091.752.098 1.394.63 1.779 1.278s.544 1.405.633 2.154c.083.688.135 1.442.615 1.944 0 0 .74.669.74 1.436 0 1.76-1.685 1.427-1.759 2.072-.14 1.259.395 1.854-.847 2.634 0 0 .227.562-.62 1.549-.847.984-1.737.868-1.737.868l-1.651.709z"/>
  <path fill="#ffbe9d" d="M536.707 128.801a1.155 1.155 0 0 0-1.034 1.17l.691 15.551c.028 1.837 2.724 2.87 4.7 2.824 1.993-.046 2.057-1.021 2.085-2.769.043-2.918.036-4.015.039-4 0 0 2.52-.421 3.034-3.697.256-1.629.168-4.3.024-6.482-.128-1.964-1.44-4.369-3.406-4.158l-6.137 1.558z"/>
  <path fill="#263238" d="M545.155 133.284a.42.42 0 0 1-.407.425c-.233.012-.429-.156-.435-.379a.42.42 0 0 1 .407-.425.406.406 0 0 1 .438.379z"/>
  <path fill="#263238" d="M545.671 132.91c-.052.055-.373-.181-.826-.178-.452-.003-.785.23-.834.174-.025-.024.027-.122.174-.229.144-.104.385-.208.67-.208.281 0 .519.104.657.211.141.107.186.205.162.23zm-4.87.534a.42.42 0 0 1-.407.425c-.233.012-.429-.156-.435-.379a.42.42 0 0 1 .407-.425.406.406 0 0 1 .438.379zm.369-.419c-.052.055-.373-.181-.826-.178-.452-.003-.785.23-.834.175-.025-.025.027-.123.174-.23.144-.104.385-.208.67-.208.281 0 .519.104.657.211.141.107.186.205.162.23zm1.694 3.207c0-.025.281-.074.737-.135.116-.012.226-.036.244-.113.028-.082-.021-.208-.079-.342q-.163-.418-.346-.877c-.48-1.25-.825-2.277-.773-2.298.052-.018.48.978.96 2.228l.33.883c.043.131.119.281.061.452a.28.28 0 0 1-.189.168c-.074.022-.141.025-.196.028-.459.024-.746.027-.746 0z"/>
  <path fill="#eb996e" d="M543.189 141.579s-2.211.147-4.406-1.161c0 0 1.116 2.307 4.406 1.995zm-.514-4.254a.82.82 0 0 0-.734-.3.75.75 0 0 0-.514.275c-.119.159-.143.388-.033.538.122.171.379.211.596.15s.404-.205.578-.346a.5.5 0 0 0 .128-.134c.031-.055.037-.125 0-.168"/>
  <path fill="#263238" d="M541.29 132.209c-.071.11-.499-.049-1.034-.107-.532-.068-.984-.016-1.03-.138-.019-.058.079-.153.275-.232.196-.076.489-.125.807-.089s.593.153.765.272c.171.119.247.236.214.291zm4.36-.16c-.086.114-.486.053-.948.105-.465.036-.85.168-.951.073-.046-.046.003-.156.165-.272.159-.117.431-.23.753-.258.321-.03.605.031.779.117.178.085.242.183.205.239zm-7.136-5.051c0 .654.299 1.305.807 1.727a2.29 2.29 0 0 0 1.85.486c.501-.092 1.051-.346 1.489-.077.458.281.477.966.88 1.317.581.501 1.501.031 2.238.248.569.168.924.709 1.3 1.164s.941.886 1.51.721c-.037-.507-.073-1.024-.226-1.509-.153-.486-.431-.951-.862-1.232-.236-.153-.508-.244-.728-.422-.471-.379-.581-1.039-.871-1.567a2.47 2.47 0 0 0-1.878-1.241c-.648-.067-1.314.128-1.944-.03-.465-.117-.875-.419-1.346-.508-.92-.174-1.773.483-2.44 1.137"/>
  <path fill="#263238" d="M536.782 134.09c-.097-.027-.492.55.141.694 1.104.247 1.251-1.901 1.003-2.515.401-.355.804-.712 1.11-1.161s.575-1.672.507-2.225c.398.024 2.095-.535 1.914-.587-.412-.116-1.256-.382-1.476-.739-.48-.773-1.327-1.302-2.193-1.253-.865.046-1.696.727-1.871 1.638-1.045.009-2.067.663-2.571 1.647-.502.984-.465 2.261.092 3.212.146.247.333.498.336.791.006.364-.266.654-.456.953-.519.822-.483 1.95-.079 2.845s.688 1.21 1.26 1.388c1.122.351-.181 2.652 1.687 2.652"/>
  <path fill="#ffbe9d" d="M536.829 134.994c-.034-.697-.798-1.161-1.404-.813-.333.192-.587.578-.556 1.317.082 1.971 2.054 1.485 2.054 1.427 0-.037-.052-1.115-.094-1.931"/>
  <path fill="#eb996e" d="M536.284 136.203s-.033.024-.091.055a.35.35 0 0 1-.257.015c-.211-.067-.404-.391-.428-.745a1.1 1.1 0 0 1 .076-.495c.055-.147.144-.251.248-.276a.18.18 0 0 1 .208.086c.027.055.018.095.027.098.006.006.04-.034.022-.116a.2.2 0 0 0-.083-.119.27.27 0 0 0-.193-.043c-.152.015-.284.162-.348.321a1.2 1.2 0 0 0-.098.556c.031.397.248.761.538.831a.37.37 0 0 0 .315-.064c.058-.052.067-.095.061-.098z"/>
  <path fill="#455a64" d="M538.727 127.77c.016.022-.198.055-.394.33-.196.269-.269.782-.147 1.363l.009.049-.049.012a1.92 1.92 0 0 0-1.275 1.119 1.5 1.5 0 0 0-.104.479c0 .168.031.343.062.523.03.18.067.364.076.562a.95.95 0 0 1-.156.581c-.248.373-.642.556-.981.736-.349.174-.673.349-.921.599a2.47 2.47 0 0 0-.74 1.653c-.018.532.132.954.26 1.22.132.269.242.397.233.406a.5.5 0 0 1-.086-.089c-.049-.064-.122-.159-.196-.293a2.5 2.5 0 0 1-.311-1.247c0-.547.226-1.219.749-1.742.256-.265.602-.458.947-.629.34-.177.713-.361.927-.691.22-.299.122-.69.064-1.045-.031-.18-.064-.36-.061-.547.006-.189.052-.363.116-.525a2.01 2.01 0 0 1 1.373-1.174l-.037.061c-.116-.608-.024-1.139.199-1.421a.8.8 0 0 1 .44-.296z"/>
  <path fill="#263238" d="M542.644 137.972c-.033.043-.354-.162-.755-.4-.4-.242-.731-.428-.709-.477.018-.049.397.064.81.312.413.247.691.525.657.565z"/>
  <path fill="#455a64" d="M548.285 134.385c-.018-.059.217-.135.474-.413a1.25 1.25 0 0 0 .303-.578c.049-.241.021-.54-.125-.803-.141-.257-.425-.452-.814-.666-.189-.11-.406-.23-.62-.401a2.2 2.2 0 0 1-.545-.666c-.272-.501-.376-1.048-.568-1.479a1.8 1.8 0 0 0-.367-.565.85.85 0 0 0-.52-.248c-.434-.061-1.018.156-1.7.031a2.1 2.1 0 0 1-.868-.419c-.236-.183-.422-.382-.596-.565-.343-.373-.633-.688-.964-.862a2.1 2.1 0 0 0-1.027-.244c-.666.015-1.162.357-1.443.623-.287.272-.404.483-.459.455-.043-.015-.027-.275.22-.654.126-.186.312-.4.584-.589.269-.187.63-.349 1.052-.398.419-.052.899 0 1.364.214.477.217.85.599 1.195.942.346.348.697.663 1.089.73.196.037.431.018.703-.015.272-.031.581-.08.939-.04.361.03.74.22.984.477.251.253.404.54.523.815.229.569.309 1.067.505 1.452.094.192.201.342.345.471.147.131.324.25.511.372.186.123.379.254.553.413s.327.357.419.568a1.6 1.6 0 0 1 .046 1.177 1.45 1.45 0 0 1-.526.687c-.398.266-.673.223-.679.181z"/>
  <path fill="#e0e0e0" d="m535.957 140.591-.563 2.121s-2.819 4.052-3.256 4.739c-.437.685-1.44 3.242-1.566 4.489-.125 1.247 4.385 18.955 4.385 18.769 0-.187 12.964 3.679 12.964 3.679l2.645-2.387s.446-5.772.195-6.273c-.251-.498-.275-8.113-.963-10.922-.688-2.805-6.136-9.069-6.136-9.069l-.499-1.387-.012 1.369-7.197-5.131z"/>
  <path fill="#e0e0e0" d="M534.64 149.045a5.93 5.93 0 0 0 .574 6.038c2.043 2.802 4.981 6.778 5.214 6.778.36 0 7.619-6.692 7.619-6.692s-4.024-6.317-6.115-7.71c-.985-.657-4.058-1.895-5.4-1.198-.59.306-1.29 1.519-1.892 2.787z"/>
  <path fill="#263238" d="M537.073 146.058c-.061-.006 0-.538.159-1.161.156-.627.322-1.122.358-1.116.053.013-.045.529-.202 1.152-.159.627-.287 1.122-.312 1.122z"/>
  <path fill="#263238" d="M543.155 145.722s-.088-.04-.238-.134l-.645-.422.07-.034c-.009.263.052.581.122.935.064.358.175.752.165 1.211v.143l-.116-.095a41 41 0 0 0-2.11-1.619 44 44 0 0 0-3.479-2.252c-.459-.266-.838-.471-1.098-.614-.263-.141-.403-.22-.4-.233.006-.009.156.052.428.178.269.125.657.314 1.125.571a34 34 0 0 1 3.519 2.222 32 32 0 0 1 2.11 1.641l-.116.048c.012-.418-.086-.822-.141-1.179-.061-.358-.113-.682-.095-.963l.006-.082.065.049.62.455c.144.107.217.168.211.174z"/>
  <path fill="#ffbe9d" d="M541.642 160.838s-.01-.009-.013-.016c.006.01.013.016.013.016"/>
  <path fill="#ffbe9d" d="M553.468 159.353c-.853-.537-2.29-.18-2.29-.18l-3.569-3.603-5.968 5.268c.609.734 4.871 4.242 6.406 4.728 1.69.538 3.577.223 4.207-.669.63-.893 1.617-2.237 1.617-2.237s.45-2.772-.403-3.31z"/>
  <path fill="#ffbe9d" d="m551.282 154.785 1.801 1.265s1.654.177 2.302 1.675c.648 1.5.783 4.791-1.394 4.849l-4.923-3.587v-2.763z"/>
  <path fill="#eb996e" d="M554.886 157.456c-.018.021-.275-.205-.755-.458a4.7 4.7 0 0 0-2.021-.541 4.7 4.7 0 0 0-2.051.412c-.496.223-.768.431-.783.41-.006-.009.055-.067.177-.162s.309-.22.557-.345a4.35 4.35 0 0 1 2.106-.471 4.36 4.36 0 0 1 2.07.602c.239.144.419.278.535.382.116.101.175.168.165.174z"/>
  <path fill="#e0e0e0" d="m549.82 155.737 2.021-1.333-7.142-7.431z"/>
  <path fill="#263238" d="M536.158 156.378s.031.03.083.092q.087.103.229.281l.866 1.088c.752.953 1.822 2.319 3.137 3.987l-.086-.009q.405-.339.838-.697c.284-.241.568-.504.862-.767.59-.525 1.208-1.081 1.853-1.656l4.14-3.694-.013.104a55.5 55.5 0 0 0-4.726-6.149c-.401-.449-.802-.88-1.233-1.256a5.7 5.7 0 0 0-1.382-.913 7.4 7.4 0 0 0-1.498-.471c-.498-.101-.987-.208-1.452-.241a2.16 2.16 0 0 0-1.284.275c-.373.211-.667.504-.915.803-.247.3-.449.609-.623.905a7.7 7.7 0 0 0-.957 2.704l-.043.288a.4.4 0 0 1-.018.097s-.01-.547.253-1.494c.138-.47.346-1.036.688-1.641.175-.302.373-.617.624-.926.251-.305.55-.611.939-.837a2.27 2.27 0 0 1 1.348-.3c.483.034.969.135 1.474.236.504.107 1.024.244 1.529.473.507.227.981.55 1.421.932s.847.816 1.251 1.266a56 56 0 0 1 3.583 4.479c.41.569.801 1.137 1.159 1.681l.037.058-.052.046-4.149 3.685-1.859 1.65c-.297.26-.581.52-.869.761l-.843.694-.049.04-.04-.049-3.094-4.022q-.542-.71-.841-1.106-.136-.184-.217-.29a1 1 0 0 1-.071-.104z"/>
  <path fill="#eb996e" d="M553.871 162.662s.04-.152.092-.431c.028-.137.028-.305.028-.51-.006-.202.018-.437.018-.684-.006-.492-.11-1.116-.52-1.626-.403-.504-1.149-.804-1.892-.691-.273.04-.529.135-.743.275l-.055.037-.046-.046a210 210 0 0 1-2.37-2.451q-.416-.445-.691-.736c-.159-.174-.244-.275-.235-.281s.104.079.278.241q.287.281.725.703c.611.602 1.455 1.449 2.409 2.411l-.098-.012c.232-.153.514-.257.804-.3.798-.122 1.596.205 2.03.758.435.556.526 1.21.52 1.718-.006.259-.04.482-.043.684a2.3 2.3 0 0 1-.055.52c-.033.14-.076.244-.101.314q-.041.105-.052.104z"/>
  <path fill="#263238" d="M544.699 147.191s.113.11.293.33c.18.217.437.538.752.936.621.8 1.48 1.912 2.241 3.269.38.679.688 1.357.881 2.005.202.645.251 1.274.208 1.775l-.046 1.198c-.015.284-.028.44-.04.44s-.018-.156-.024-.44c0-.312 0-.715-.003-1.198a4.9 4.9 0 0 0-.236-1.732c-.195-.633-.504-1.299-.88-1.968-.752-1.342-1.596-2.463-2.193-3.279q-.432-.584-.709-.966c-.165-.229-.251-.36-.244-.367zm-4.281 18.797c.049-.015.324.929.936 1.965.602 1.039 1.29 1.745 1.253 1.779-.015.015-.204-.144-.473-.44a7.7 7.7 0 0 1-1.569-2.677c-.125-.379-.171-.623-.15-.627zm3.884 4.122c-.043.012-.257-.568-.481-1.296-.223-.727-.37-1.329-.33-1.341.043-.012.257.568.48 1.296.224.727.371 1.329.331 1.341"/>
  <path fill="#e8505b" d="M539.47 149.909c.049-.08.899 1.745.899 1.745s.419 1.204-1.012 1.888c-1.516.727-2.155-.736-2.155-.736l-.627-1.339s1.073-.198 1.103-1.329c0 0 1.22.688 1.792-.229"/>
  <path fill="#455a64" d="m548.731 234.713-.425 6.411s6.384 2.117 6.421 3.309l-12.475.092.251-10.017 6.225.205z"/>
  <path fill="#263238" d="m542.252 244.524.025-1.008 12.05.333s.4.174.464.678h-12.539zm7.916-60.728.553-10.463-16.241-.599s-2.076 4.887-2.568 6.784c-.493 1.898-.814 4.336-.181 6.726s5.207 10.362 5.207 10.362l4.366 44.043h9.925l-1.058-56.853z"/>
  <path fill="#263238" d="M550.073 175.154c.119 1.192 9.237 29.36 8.206 33.654-1.03 4.293-8.42 24.461-8.42 24.461z"/>
  <path fill="#455a64" d="M550.33 177.02c.043 0 .171 11.795.282 26.343.11 14.552.165 26.347.122 26.347s-.171-11.792-.282-26.347c-.11-14.548-.165-26.343-.122-26.343m-2.92 63.629c-.043 0-.581-13.812-1.202-30.848-.621-17.042-1.085-30.855-1.043-30.858.043 0 .581 13.809 1.202 30.852.621 17.036 1.085 30.851 1.043 30.854m-2.755-66.086s-.003.152-.039.427c-.046.272-.12.667-.273 1.14a8.9 8.9 0 0 1-1.926 3.328c-1.018 1.118-2.223 1.882-3.204 2.105a2.8 2.8 0 0 1-1.174.043 1.7 1.7 0 0 1-.309-.088c-.067-.028-.104-.043-.101-.049.006-.016.15.036.419.073.269.031.67.037 1.137-.092.942-.241 2.113-1.005 3.113-2.102a9.4 9.4 0 0 0 1.935-3.255c.324-.922.383-1.537.419-1.53z"/>
  <path fill="#455a64" d="M554.794 206.445c-.006.052-.979-.177-2.168.009-1.192.171-2.052.675-2.073.63-.009-.016.193-.162.553-.336s.89-.358 1.499-.45a5.4 5.4 0 0 1 1.562-.009c.398.058.633.141.627.159zm-15.297-6.119c-.022.009-.19-.288-.459-.764a73 73 0 0 0-1.076-1.855 74 74 0 0 0-1.134-1.822c-.297-.461-.481-.751-.459-.764.018-.012.232.254.553.7a29 29 0 0 1 2.217 3.689c.245.495.379.806.358.816m-5.026-31.782c-.251-.082-.401 4.633-.401 4.633s8.201 1.598 16.639.354l.217-4.119s-7.304 2.169-16.458-.868z"/>
  <path fill="#455a64" d="M540.833 179.236c-.81 0-1.467-.657-1.467-1.467v-6.099a1.467 1.467 0 0 1 2.935 0v6.099c0 .81-.657 1.467-1.468 1.467"/>
  <path fill="#263238" d="M540.833 179.235s.077-.009.214-.033c.138-.025.343-.083.566-.23.217-.146.456-.394.569-.751.061-.181.076-.373.067-.593q0-.329-.006-.691c-.006-.975-.009-2.127-.018-3.401-.007-.635.003-1.32-.013-2.001a1.4 1.4 0 0 0-.44-.88 1.387 1.387 0 0 0-2.324.88c-.015.681-.006 1.366-.012 2.001l-.024 4.092c-.006.22.009.415.067.593.113.357.352.605.569.751.223.147.428.205.565.23.138.024.214.024.214.033 0 0-.076.015-.22 0a1.4 1.4 0 0 1-.593-.208 1.5 1.5 0 0 1-.621-.776 1.8 1.8 0 0 1-.085-.62q0-.329-.006-.691c-.007-.975-.01-2.127-.019-3.401 0-.645-.012-1.305 0-2.017a1.55 1.55 0 0 1 1.538-1.393 1.546 1.546 0 0 1 1.535 1.393c.015.712 0 1.372 0 2.017l-.024 4.092a1.7 1.7 0 0 1-.086.62 1.47 1.47 0 0 1-.621.776 1.4 1.4 0 0 1-.593.208c-.144.015-.22 0-.22 0z"/>
  <path fill="#455a64" d="M540.831 172.793a.41.41 0 0 0-.349.342.37.37 0 0 0 .269.397c.172.037.417-.116.438-.29s-.049-.418-.358-.449"/>
  <path fill="#263238" d="M540.83 172.794s.034-.022.095-.012a.35.35 0 0 1 .236.128.46.46 0 0 1 .085.4.49.49 0 0 1-.4.309c-.211.021-.367-.138-.416-.287a.41.41 0 0 1 .076-.401c.162-.18.327-.152.321-.134.006.024-.131.046-.232.202a.3.3 0 0 0-.028.284c.04.101.15.195.26.18.12-.012.245-.107.279-.196a.37.37 0 0 0-.037-.287c-.098-.146-.251-.153-.242-.18z"/>
  <path fill="#455a64" d="M539.307 174.443c.875.6 2.073.692 3.027.233z"/>
  <path fill="#263238" d="M542.334 174.677c.01.015-.14.122-.419.22a2.85 2.85 0 0 1-2.228-.171c-.26-.141-.392-.266-.38-.281.025-.046.624.376 1.489.434.866.073 1.523-.251 1.538-.202"/>
  <path fill="#455a64" d="M536.382 187.46a1.52 1.52 0 0 1-1.499-1.543l.263-17.033a1.521 1.521 0 0 1 3.043.046l-.263 17.033a1.52 1.52 0 0 1-1.544 1.497"/>
  <path fill="#263238" d="M536.382 187.461s.156.003.434-.073c.266-.083.685-.294.923-.789.129-.244.162-.544.153-.88l.009-1.094.031-2.665c.024-1.977.055-4.324.092-6.93.018-1.305.039-2.674.058-4.095.006-.706.027-1.439.024-2.157a1.45 1.45 0 0 0-.449-.923 1.441 1.441 0 0 0-2.419.877c-.027.715-.027 1.451-.043 2.157l-.067 4.095c-.046 2.607-.088 4.957-.125 6.931-.018.984-.037 1.876-.052 2.661q-.012.587-.025 1.091c-.018.336.003.636.126.886.226.501.636.728.899.816.275.086.431.077.431.086 0 0-.156.021-.44-.055a1.54 1.54 0 0 1-.948-.822c-.132-.251-.159-.581-.144-.911l.009-1.091.031-2.661c.024-1.977.055-4.324.091-6.934.019-1.305.04-2.674.059-4.095.015-.712.012-1.424.039-2.172.046-.385.239-.752.532-1.009a1.6 1.6 0 0 1 1.083-.4c.397.006.785.165 1.07.434.287.266.465.638.498 1.023.006.749-.018 1.461-.027 2.173-.025 1.418-.046 2.79-.068 4.092-.045 2.606-.088 4.956-.125 6.93-.018.984-.037 1.877-.052 2.662l-.024 1.091c.006.33-.034.66-.172.907-.26.511-.697.719-.972.792-.287.07-.443.043-.443.043z"/>
  <path fill="#455a64" d="M545.255 179.058a1.467 1.467 0 0 1-1.468-1.466v-6.1a1.467 1.467 0 0 1 2.935 0v6.1c0 .809-.657 1.466-1.467 1.466"/>
  <path fill="#263238" d="M545.255 179.057s.076-.009.214-.033a1.5 1.5 0 0 0 .565-.229c.218-.147.456-.395.569-.752.061-.18.077-.373.067-.593q0-.329-.006-.691c-.006-.974-.009-2.126-.018-3.401-.006-.635.003-1.32-.012-2.001a1.4 1.4 0 0 0-.441-.88 1.4 1.4 0 0 0-.941-.37 1.4 1.4 0 0 0-1.382 1.25c-.016.681-.006 1.366-.012 2.001l-.019 3.401q0 .362-.006.691c-.006.22.009.416.067.593.113.357.352.605.569.752.223.146.428.204.566.229.137.024.214.024.214.033 0 0-.077.016-.22 0a1.4 1.4 0 0 1-.594-.207 1.5 1.5 0 0 1-.62-.777 1.8 1.8 0 0 1-.086-.62q0-.33-.006-.69c-.006-.975-.009-2.127-.018-3.402 0-.644-.013-1.304 0-2.016a1.547 1.547 0 0 1 1.538-1.394 1.546 1.546 0 0 1 1.534 1.394c.016.712 0 1.372 0 2.016l-.024 4.092c.003.217-.015.437-.086.62a1.48 1.48 0 0 1-.62.777 1.5 1.5 0 0 1-.593.207c-.144.016-.221 0-.221 0z"/>
  <path fill="#455a64" d="M545.252 172.322a.41.41 0 0 0-.349.343.37.37 0 0 0 .269.397c.172.036.417-.116.438-.291.021-.174-.049-.418-.358-.449"/>
  <path fill="#263238" d="M545.251 172.323s.034-.021.095-.012a.35.35 0 0 1 .236.128.47.47 0 0 1 .085.401.49.49 0 0 1-.4.308c-.211.022-.367-.137-.416-.287a.4.4 0 0 1 .076-.4c.162-.181.327-.153.321-.135.006.025-.131.046-.232.202a.3.3 0 0 0-.028.284c.04.101.15.196.26.18.119-.012.245-.107.278-.195a.36.36 0 0 0-.036-.287c-.098-.147-.251-.153-.242-.181z"/>
  <path fill="#455a64" d="M545.258 175.936a.41.41 0 0 0-.349.342.37.37 0 0 0 .27.397c.171.037.416-.116.437-.29s-.049-.419-.358-.449"/>
  <path fill="#263238" d="M545.257 175.936s.034-.021.095-.012a.35.35 0 0 1 .235.129.46.46 0 0 1 .086.4.49.49 0 0 1-.401.308c-.211.022-.366-.137-.415-.287a.4.4 0 0 1 .076-.4c.162-.18.327-.153.321-.135.006.025-.131.046-.232.202a.3.3 0 0 0-.028.284c.04.101.15.196.26.181.119-.013.245-.107.278-.196a.36.36 0 0 0-.036-.287c-.098-.147-.251-.153-.242-.181z"/>
  <path fill="#455a64" d="m123.728 242.887-2.086 8.275-3.537 6.069a.874.874 0 0 0 1.168 1.213l8.001-4.966 2.318-8.269-5.861-2.322z"/>
  <path fill="#263238" d="m119.273 258.441 8.002-4.966.342-1.225-9.206 6.173s.447.272.862.021z"/>
  <path fill="#455a64" d="m145.644 244.726-.428 6.469s6.442 2.136 6.479 3.34l-12.588.092.254-10.106 6.283.208z"/>
  <path fill="#263238" d="m139.11 254.627.024-1.018 12.157.337s.404.174.468.684h-12.652z"/>
  <path fill="#b78876" d="M116.292 149.009c-.238-.409-.303-.739-.196-1.46s.734-5.846.814-6.258c.153-.798.737-1.003.81-.419s.101 2.891.248 2.927c.146.037.293-3.7.617-4.122s.578-.422.722-.241c.143.18.18.308.18.308s.26-.452.56-.424c.541.052.55.718.55.718l.043 1.583s.046-1.275.41-1.449c.204-.098.489-.033.599.355.107.388 0 1.937 0 2.044s.049 4.147.049 4.147.425-.502.727-1.244c.211-.51.557-.703.991-.596s.468.541.324.865-.434 1.314-.434 1.314l-.755 1.479-2.605 2.331-.942 2.13s-3.018-.305-3.379-1.925l.664-2.069z"/>
  <path fill="#aa6550" d="M120.597 146.229c.015.027-.352.158-.786.577-.425.406-.905 1.155-.92 2.072q0 .124.006.238l-.156.025a6.7 6.7 0 0 0-.826-2.023c-.293-.477-.516-.737-.498-.755.006-.006.073.052.177.168.107.116.251.293.413.529.321.464.691 1.179.89 2.047l-.156.025c0-.08-.006-.165-.006-.254a2.9 2.9 0 0 1 .336-1.293 3 3 0 0 1 .67-.858 2.6 2.6 0 0 1 .608-.407c.159-.07.251-.098.254-.088zm-.055-1.476c0 .046-.682.089-1.508.227-.828.134-1.486.315-1.501.269-.015-.04.633-.291 1.474-.428.841-.141 1.535-.111 1.535-.071zm-1.199-.31c-.043 0-.049-1.066-.012-2.377.036-1.311.101-2.375.147-2.375.043 0 .049 1.067.012 2.378s-.101 2.374-.147 2.371zm1.156-.035c-.043 0-.058-.938-.031-2.096s.086-2.093.129-2.093.058.938.031 2.096c-.028 1.155-.086 2.093-.129 2.093"/>
  <path fill="#263238" d="M132.307 184.148c-.018.036-.602-.272-1.159-.853-.559-.578-.847-1.17-.81-1.189.04-.024.379.517.923 1.079.539.565 1.071.923 1.043.963zm10.49-3.45c.007-.025.38.052.991.131.612.08 1.459.141 2.397.095a14 14 0 0 0 2.376-.33c.599-.138.966-.254.972-.229.003.009-.082.048-.244.113-.162.064-.401.14-.701.226-.596.168-1.446.333-2.394.382a11 11 0 0 1-2.421-.144 7 7 0 0 1-.719-.156c-.168-.046-.26-.076-.257-.085z"/>
  <path fill="#263238" d="m146.243 249.44 4.107-55.245.189-14.213-22.739 1.834-7.521 67.979 9.02-.226 9.206-57.033-.438 56.639z"/>
  <path fill="#455a64" d="M133.537 190.537c.042.006-1.899 13.119-4.339 29.281-2.44 16.168-4.452 29.268-4.495 29.262-.042-.006 1.899-13.116 4.339-29.284 2.44-16.165 4.452-29.265 4.495-29.259m9.047 58.543.003-.153.025-.446.113-1.708.422-6.286c.348-5.308.791-12.641 1.186-20.748.391-8.11.654-15.454.819-20.771.08-2.652.141-4.803.187-6.295.021-.736.04-1.314.052-1.711q.009-.285.018-.446.01-.152.012-.153l.006.153v.446c-.006.397-.012.975-.021 1.711a614 614 0 0 1-.134 6.298 939 939 0 0 1-.774 20.774 926 926 0 0 1-1.232 20.748c-.19 2.653-.352 4.801-.471 6.283-.061.737-.11 1.311-.144 1.708l-.039.443c-.01.101-.019.15-.019.15z"/>
  <path fill="#e0e0e0" d="m134.741 147.364-1.605 2.375s-5.128.66-5.941 1.033c-.814.372-1.119 1.686-1.119 1.686l1.446 17.48s.364 7.425.318 8.586c0 0 0 1.162-.049 1.996-.046.834.138 2.319.138 2.319s6.546 1.629 7.102 1.583c.557-.046 3.345-.648 3.345-.648l8.405-.318 2.694-.88.511-1.439-.325-.605s1.162-1.345 1.257-2.041c.095-.697-.318-7.566-.318-7.566v-1.996l1.177-17.726s-1.483-.951-2.311-1.101a51 51 0 0 1-4.36-1.005l-2.217-2.542-8.148.803z"/>
  <path fill="#263238" d="M138.227 155.151v.073l-.016.214c-.018.202-.046.477-.076.825-.074.715-.165 1.751-.263 3.034-.101 1.281-.19 2.809-.26 4.508a128 128 0 0 0-.08 5.528c.022 1.961.092 3.828.187 5.524.101 1.696.22 3.224.346 4.502.122 1.28.235 2.313.321 3.028q.059.52.091.822l.022.214q.004.073 0 .073-.002 0-.019-.07l-.036-.214-.123-.819a78 78 0 0 1-.373-3.025c-.14-1.281-.269-2.805-.379-4.504-.101-1.699-.177-3.57-.199-5.534a118 118 0 0 1 .092-5.535c.077-1.699.178-3.229.294-4.51.113-1.28.223-2.316.315-3.031q.066-.52.107-.822.02-.128.03-.214.012-.073.016-.073z"/>
  <path fill="#e0e0e0" d="m137.746 155.47 5.131 6.829s.697 1.152 1.953 2.763 5.623 4.684 6.531 4.861c.908.175 2.517.352 3.532-1.463s1.437-5.763 1.437-5.763l-4.55-11.484s-1.73 1.002-2.571 2.643-.902 5.1-.902 5.1l-4.825-4.339-2.116-2.515-3.62 3.374z"/>
  <path fill="#263238" d="M151.365 162.677s-.221-.205-.444-.63c-.229-.418-.434-1.048-.758-1.677a3.2 3.2 0 0 0-.575-.804 2.2 2.2 0 0 0-.663-.446c-.428-.177-.731-.11-.731-.141 0-.009.07-.036.205-.046.134-.012.336.003.565.083.23.079.49.223.725.443.238.22.443.513.611.837.334.654.517 1.281.719 1.702.19.428.361.667.342.679zm-7.882-8.067c.015.006-.074.284-.297.694a5.63 5.63 0 0 1-2.645 2.441c-.428.187-.712.251-.718.232-.028-.051 1.104-.391 2.131-1.353 1.036-.954 1.48-2.045 1.529-2.014m-4.162.825s.036-.031.116-.049a.5.5 0 0 1 .352.042c.137.083.25.257.256.468a.53.53 0 0 1-.388.523.52.52 0 0 1-.605-.239.55.55 0 0 1-.016-.532.43.43 0 0 1 .26-.244c.086-.021.132 0 .129.006.009.022-.202.025-.288.278a.45.45 0 0 0 .037.41c.086.134.26.22.434.162a.39.39 0 0 0 .288-.37.46.46 0 0 0-.172-.373c-.097-.07-.211-.073-.284-.076-.076 0-.122 0-.122-.013z"/>
  <path fill="#e0e0e0" d="m115.344 150.371-1.676 2.946-1.045.364s-4.498 6.808-1.994 9.017c2.507 2.209 6.604 2.09 8.017 1.412s8.616-3.936 8.616-3.936l-.067-9.403s-2.183 1.049-3.691 2.335c-.899.767-5.216 3.245-5.216 3.245l1.281-3.899-4.228-2.081zm17.352-.115a5.8 5.8 0 0 1-.899 3.138 12.3 12.3 0 0 0 3.898-2.472 7.1 7.1 0 0 0 1.667 1.659c-.377-.935-1.04-1.717-1.606-2.551-.562-.835-1.045-1.797-.972-2.8l-2.088 3.029z"/>
  <path fill="#263238" d="M145.394 171.606s-.095.162-.291.44a7 7 0 0 1-.37.495c-.149.189-.315.409-.519.635-.395.465-.899.984-1.492 1.531-.6.538-1.288 1.094-2.055 1.62-.771.519-1.544.953-2.266 1.311a17 17 0 0 1-1.975.819c-.284.107-.55.18-.783.25a7 7 0 0 1-.599.162c-.33.08-.514.116-.517.107 0-.009.178-.07.502-.165.162-.046.361-.107.587-.186.226-.08.489-.156.77-.272a20 20 0 0 0 1.948-.847 22 22 0 0 0 2.241-1.311 21 21 0 0 0 2.046-1.598 19 19 0 0 0 1.504-1.497c.208-.22.379-.434.535-.614a10 10 0 0 0 .391-.477c.211-.266.331-.409.34-.403zm-10.338-20.648s-.031.113-.141.293a3 3 0 0 1-.584.666c-.553.511-1.467 1.006-2.415 1.608l-.077.049-.177.116.055-.202a26 26 0 0 1 1.266-3.474c.086-.184.144-.282.153-.275s-.028.11-.095.299q-.119.333-.293.804c-.242.681-.581 1.622-.878 2.686l-.122-.086.076-.049c.96-.608 1.868-1.081 2.428-1.558.578-.462.77-.892.798-.874zm-7.213 27.564s-.012-.076-.024-.223a39 39 0 0 0-.04-.639c-.027-.574-.064-1.372-.113-2.353l-.147-3.489c-.03-.657-.046-1.348-.088-2.06-.058-.712-.123-1.449-.184-2.206-.483-5.883-.831-10.1-.902-10.952 0-.003.031.073.052.217.025.143.052.36.086.635.064.553.147 1.354.241 2.344.19 1.98.431 4.715.682 7.74q.092 1.137.181 2.21c.042.715.055 1.405.079 2.062l.113 3.493.061 2.356q.004.399.01.642c0 .147 0 .223-.01.223zm-9.141-23.16c.024.012-.19.443-.468 1.167a15.7 15.7 0 0 0-.795 2.912 15 15 0 0 0-.186 1.653c-.037.511-.007.972-.077 1.369-.067.397-.278.682-.465.807a.7.7 0 0 1-.232.11c-.058.015-.089.015-.089.009-.006-.015.12-.033.285-.171.162-.131.342-.4.391-.776.055-.373.012-.84.04-1.357.021-.516.076-1.082.177-1.671.196-1.18.544-2.21.847-2.928.153-.36.291-.642.395-.834.103-.193.168-.297.177-.29"/>
  <path fill="#263238" d="M118.056 162.064c-.021 0-.052-.318-.07-.837a29 29 0 0 1 .156-4.052c.058-.517.116-.831.138-.831.021 0 .006.324-.025.84-.03.517-.073 1.232-.104 2.02-.03.788-.043 1.503-.055 2.02-.009.516-.018.837-.04.84m.354-6.271c0 .018-.311.018-.807-.07a6.57 6.57 0 0 1-3.412-1.825c-.352-.36-.523-.62-.507-.629.036-.04.81.953 2.152 1.659 1.333.721 2.59.81 2.578.865zm-.865-2.703c.022.015-.101.134-.055.357a.42.42 0 0 0 .208.287c.116.062.278.025.392-.085s.155-.272.094-.388a.41.41 0 0 0-.281-.214c-.22-.052-.342.067-.358.046-.006-.006.009-.046.071-.089a.45.45 0 0 1 .305-.067.51.51 0 0 1 .395.26c.101.174.04.421-.116.568-.15.15-.398.205-.572.104a.52.52 0 0 1-.251-.4.46.46 0 0 1 .074-.303c.045-.061.085-.076.091-.07z"/>
  <path fill="#e8505b" d="M133.393 157.415c.08-.046-.046 1.986-.046 1.986s-.211 1.271-1.81 1.195c-1.697-.083-1.556-1.69-1.556-1.69l.092-1.494s1.048.339 1.62-.654c0 0 .749 1.198 1.7.657"/>
  <path fill="#263238" d="M152.083 151.973q.002 0 .086.189l.232.562c.202.502.496 1.226.872 2.152.746 1.87 1.816 4.544 3.118 7.795l.006.015v.019c-.204 1.139-.422 2.349-.645 3.621-.113.641-.302 1.292-.623 1.897a5.4 5.4 0 0 1-.566.871c-.11.135-.229.269-.361.388-.137.129-.29.214-.452.303-.649.342-1.422.363-2.144.241-.357-.067-.74-.131-1.067-.342-.309-.202-.624-.406-.935-.611-1.254-.822-2.523-1.708-3.697-2.76-.933-.822-1.743-1.744-2.483-2.683a51 51 0 0 1-2.067-2.832c-1.287-1.886-2.464-3.698-3.666-5.293l-.036-.049.046-.043 3.629-3.367.043-.04.039.043c2.092 2.124 3.792 3.85 4.972 5.051.581.596 1.037 1.061 1.348 1.385q.225.232.349.363c.076.083.113.129.113.129s-.046-.037-.128-.117l-.361-.351c-.318-.318-.78-.776-1.373-1.36a5109 5109 0 0 0-5.011-5.014h.082l-3.614 3.382.009-.091c1.211 1.598 2.395 3.41 3.682 5.289a52 52 0 0 0 2.064 2.824c.736.935 1.541 1.849 2.464 2.661 1.168 1.042 2.428 1.926 3.678 2.748l.933.608c.296.195.657.256 1.012.324.703.119 1.44.097 2.048-.223.147-.08.303-.169.419-.279.125-.113.239-.241.346-.372.214-.263.394-.55.55-.844.312-.59.501-1.225.615-1.855.229-1.271.449-2.484.657-3.624v.037c-1.275-3.261-2.33-5.944-3.064-7.817l-.837-2.163q-.14-.367-.214-.569a3 3 0 0 1-.068-.195z"/>
  <path fill="#e0e0e0" d="M145.072 149.241c-.11 1.213-1.498 3.606-1.932 4.278 0 0-.899-1.781-1.37-2.75l-.177 1.387c-.376-.339-.037-2.282-.095-2.264l1.321-3.322 2.253 2.674z"/>
  <path fill="#263238" d="M142.623 146.586s.092-.024.266-.049h.009l.01.006c.354.376 1.174 1.29 2.253 2.512l.021.025-.006.033a11.7 11.7 0 0 1-1.259 3.303c-.227.404-.468.783-.713 1.143l-.082.119-.055-.134c-.288-.688-.649-1.302-.942-1.882-.297-.578-.538-1.122-.664-1.617l.101.009c-.241.544-.44.99-.59 1.323-.14.309-.223.48-.235.474s.055-.18.177-.498c.138-.339.321-.794.547-1.348l.058-.146.043.156c.132.479.376 1.008.679 1.579.3.572.667 1.186.963 1.889l-.137-.015c.241-.358.48-.737.703-1.134a12.1 12.1 0 0 0 1.263-3.254l.015.061a131 131 0 0 1-2.18-2.573l.018.006a2 2 0 0 1-.269.006zm5.06 8.699c.043-.006.187.834.346 1.873.08.52.144.99.175 1.336.015.171.024.311.018.412a.3.3 0 0 1-.024.119c-.019.028-.046.004-.043 0q-.004-.01 0-.012c.043.071 0-.174-.062-.501a44 44 0 0 1-.22-1.326c-.159-1.039-.233-1.892-.187-1.895z"/>
  <path fill="#b78876" d="M138.804 151.959a3.774 3.774 0 0 1-3.849-3.954c.033-.721.064-1.243.064-1.243s-3.024-.392-3.137-3.402.235-9.934.235-9.934a10.48 10.48 0 0 1 10.552 1.057l.455.333-.498 11.777s-1.33 4.395-2.339 5.033c-.562.355-.77.321-1.48.336z"/>
  <path fill="#aa6550" d="M135.019 146.758s1.902.064 3.892-1.256c0 0-.902 2.188-3.916 1.992l.024-.733z"/>
  <path fill="#b78876" d="M142.828 137.941c.052-.025 2.055-.664 2.039 1.396-.015 2.06-2.079 1.62-2.082 1.562s.043-2.958.043-2.958"/>
  <path fill="#aa6550" d="M143.422 140.122s.036.024.094.055a.36.36 0 0 0 .269.006c.218-.079.404-.422.416-.794a1.15 1.15 0 0 0-.098-.514c-.061-.15-.159-.257-.269-.278a.18.18 0 0 0-.211.098c-.027.058-.015.098-.027.101-.006.006-.043-.034-.028-.119a.24.24 0 0 1 .083-.129.27.27 0 0 1 .199-.052c.159.012.299.159.373.321.079.165.128.364.119.575-.015.415-.232.8-.529.886a.38.38 0 0 1-.327-.058c-.064-.052-.074-.098-.067-.101z"/>
  <path fill="#263238" d="M133.276 138.225a.43.43 0 0 0 .425.421.413.413 0 0 0 .434-.397.437.437 0 0 0-.425-.425.41.41 0 0 0-.434.401m-.483-.581c.055.055.373-.196.838-.205.462-.019.807.211.856.156.025-.025-.034-.126-.183-.23a1.2 1.2 0 0 0-.688-.193 1.15 1.15 0 0 0-.664.233c-.14.113-.186.214-.159.239m4.984.58c0 .226.189.415.425.424a.413.413 0 0 0 .434-.397.437.437 0 0 0-.425-.425.41.41 0 0 0-.434.401zm-.431-.607c.055.055.376-.196.838-.206.461-.018.807.212.856.157.024-.025-.034-.126-.184-.23a1.17 1.17 0 0 0-.688-.193 1.14 1.14 0 0 0-.663.233c-.141.113-.187.214-.159.239m-1.593 3.47c0-.027-.287-.067-.755-.116-.119-.009-.232-.031-.254-.11-.03-.086.015-.214.07-.351l.328-.908c.452-1.293.776-2.356.724-2.371-.052-.019-.461 1.014-.914 2.307q-.165.477-.312.914c-.04.134-.113.29-.049.464.034.089.123.15.199.168a.7.7 0 0 0 .202.021c.471.013.761.01.761-.018m1.397-4.571c.059.123.511.019 1.058.034.548.003.997.119 1.058 0 .028-.058-.061-.168-.247-.273a1.8 1.8 0 0 0-.804-.199 1.7 1.7 0 0 0-.811.175c-.189.098-.281.208-.257.263zm-4.476.238c.085.11.455.027.89.052.437.012.798.125.889.021.04-.052-.009-.159-.165-.269a1.35 1.35 0 0 0-.712-.221 1.35 1.35 0 0 0-.725.162c-.162.098-.22.202-.18.258z"/>
  <path fill="#aa6550" d="M137.044 142.063a.73.73 0 0 0-.447-.172 1.7 1.7 0 0 0-.48.065c-.183.045-.382.116-.48.275a.54.54 0 0 0-.058.372c.021.126.043.584.293.697h1.083c.153-.143.223-.458.26-.663a.65.65 0 0 0-.171-.578z"/>
  <path fill="#263238" d="M136.698 143.309s.049.012.123 0a.3.3 0 0 0 .217-.202c.046-.122.052-.312.064-.501.009-.19-.018-.401-.159-.544-.131-.153-.342-.101-.538-.067-.199.036-.367.067-.495.125-.263.113-.312.318-.34.305-.009 0-.009-.051.025-.134a.57.57 0 0 1 .263-.269c.14-.079.324-.125.516-.168.098-.021.205-.046.324-.049a.48.48 0 0 1 .358.147c.19.195.208.464.19.663-.025.202-.037.382-.107.538-.071.159-.224.226-.315.22-.098-.003-.135-.055-.129-.061zm3.862-7.943c-.077.315-.153.651-.046.956.107.306.474.544.761.391-.092.312-.15.642-.113.966s.18.645.431.853.621.284.917.149c.297-.137.483-.504.373-.809.272.201.704.042.853-.263.15-.306.058-.685-.149-.954.299.025.565-.247.617-.544.052-.296-.064-.598-.229-.849s-.376-.468-.547-.715c-.15-.214-.291-.471-.545-.541-.201-.055-.412.028-.605.116a10 10 0 0 0-1.81 1.085m3.372-1.764s1.403.165 1.599-.776c.514-2.469-2.889-3.517-2.889-3.517s-1.193-.315-3.14-1.036a12.7 12.7 0 0 1-2.168-1.048 1.93 1.93 0 0 0-2.055.018c-.853.553-2.152 1.296-3.605 1.773 0 0-1.333.348-1.324 2.077.003.795 1.355 1.388 1.355 1.388l12.224 1.121z"/>
  <path fill="#455a64" d="m143.624 134.81.229-1.442s-7.98-2.876-12.083-1.024v1.632l11.85.834z"/>
  <path fill="#263238" d="M129.638 135.041s.99.801 3.158.908c3.951.198 10.381-1.171 10.381-1.171l-11.408-.803-2.134 1.066z"/>
  <path fill="#e0e0e0" d="M137.098 130.006c.073-.043-.04 1.79-.04 1.79s-.189 1.149-1.632 1.082c-1.532-.07-1.407-1.525-1.407-1.525l.083-1.347s.944.305 1.461-.59c0 0 .679 1.079 1.535.59"/>
  <path fill="#455a64" d="M143.583 134.866s-.119.037-.336.077l-.927.156c-.782.125-1.865.302-3.066.473a42 42 0 0 1-3.088.336c-.398.025-.719.04-.942.04s-.346 0-.346-.012.123-.028.343-.049l.935-.092c.789-.076 1.878-.21 3.076-.379 1.199-.168 2.284-.326 3.073-.424.395-.049.713-.086.936-.107.22-.022.345-.028.345-.015z"/>
  <path fill="#e8505b" d="M135.536 142.93v2.087h1.177v-2.072z"/>
  <path fill="#b78876" d="M136.994 143.818s-.247.208-.208.841c.043.635.676 1.185.676 1.185v.538l-2.003-2.249s-.192-.318-.483-.22c-.29.098-.938.498-.483 1.311 0 0-.526.138-.51.84 0 0-.814-.262-.814.676v.565s-.29-.235-.553 0-.208.911-.125 1.228c.082.318 2.333 3.463 3.036 3.796.703.33 1.146.758 1.146.758l1.547 1.864 2.853-2.671s-1.734-1.73-1.844-2.06.221-1.366.193-1.766-.208-1.931-.303-2.249c-.098-.318-2.125-2.387-2.125-2.387"/>
  <path fill="#aa6550" d="M138.223 154.953q-.002.002-.11-.116a27 27 0 0 0-.309-.354l-1.158-1.366a5 5 0 0 0-.93-.636c-.119-.061-.251-.119-.379-.211-.465-.376-.868-.877-1.303-1.412a27 27 0 0 1-1.308-1.784c-.107-.171-.22-.315-.306-.535a2.5 2.5 0 0 1-.067-.62c.009-.208.024-.44.186-.636a.45.45 0 0 1 .334-.153c.128 0 .241.046.345.12l-.122.058v-.447c0-.146 0-.317.052-.476a.58.58 0 0 1 .345-.385.86.86 0 0 1 .52-.009l-.101.076a1.1 1.1 0 0 1 .119-.538.8.8 0 0 1 .45-.382l-.049.113a1.2 1.2 0 0 1-.165-.544.8.8 0 0 1 .205-.556q.202-.226.498-.327a.43.43 0 0 1 .333.037.65.65 0 0 1 .233.223l-.009-.012.052.058c.666.748 1.317 1.482 1.95 2.191l-.137.052v-.538l.027.058c-.299-.278-.544-.605-.66-.996a1.6 1.6 0 0 1-.034-.59c.028-.196.067-.388.229-.556l.046-.049.052.055c.511.526.997 1.039 1.45 1.543.223.254.443.495.632.77.052.08.074.168.086.245l.043.235c.021.156.046.309.067.458q.059.453.104.877.022.212.04.419c.015.134.015.284-.006.416-.071.525-.233 1.005-.199 1.427.015.094.082.177.144.262q.092.124.189.239.192.225.364.418l.596.648.376.401q.13.137.126.143s-.052-.04-.141-.125l-.391-.385c-.168-.171-.376-.382-.612-.633a12 12 0 0 1-.373-.412c-.064-.077-.131-.153-.196-.239-.061-.082-.14-.171-.165-.296-.039-.468.12-.935.181-1.455.04-.253-.019-.522-.043-.806a70 70 0 0 0-.11-.874q-.033-.224-.07-.456l-.043-.229a.5.5 0 0 0-.071-.201c-.174-.254-.4-.502-.623-.749a58 58 0 0 0-1.453-1.531l.101.006c-.098.101-.156.287-.174.458-.018.178-.015.364.034.535.101.345.339.663.614.92l.028.024v.777l-.138-.153-1.951-2.191-.052-.058h-.003l-.006-.012c-.088-.135-.244-.242-.385-.19a1 1 0 0 0-.425.278.63.63 0 0 0-.165.449c.006.162.064.324.147.474l.046.086-.095.03a.66.66 0 0 0-.355.303.96.96 0 0 0-.101.461v.104l-.101-.031a.73.73 0 0 0-.416.003.43.43 0 0 0-.253.288c-.04.134-.046.275-.046.428v.598l-.122-.094c-.147-.113-.358-.123-.474.018-.117.128-.144.345-.15.538-.006.198.018.397.061.584.058.155.183.333.281.492.428.647.869 1.24 1.291 1.784.428.535.831 1.039 1.271 1.406.059.039.111.076.175.11q.097.046.189.098.186.101.352.207c.22.147.419.297.59.459v.003c.483.593.862 1.06 1.128 1.39.123.153.217.275.291.367a.7.7 0 0 1 .094.131z"/>
  <path fill="#aa6550" d="M135.918 146.969c-.033.027-.391-.361-.795-.865-.403-.504-.703-.938-.669-.966.033-.027.391.361.795.865.403.504.703.938.669.966m-1.069.409c-.031.031-.306-.211-.536-.593-.232-.379-.324-.733-.284-.745.042-.016.195.299.419.663.223.366.435.644.401.675m-1.281.797c-.04.021-.177-.162-.306-.41-.132-.247-.205-.464-.165-.482.04-.019.177.161.306.409.131.248.205.464.165.483"/>
  <path fill="#263238" d="M134.496 161.48h-5.479v1.189h5.479z"/>
  <path fill="#455a64" d="M126.917 179.24s.189 4.343 9.927 4.006c9.739-.333 13.652-4.006 13.652-4.006v4.556s-10.557 4.193-17.85 3.139c-5.726-.825-7.017-3.139-7.017-3.139z"/>
  <path fill="#455a64" d="M133.219 189.593a1.48 1.48 0 0 1-1.48-1.479v-6.155a1.48 1.48 0 0 1 2.959 0v6.155a1.48 1.48 0 0 1-1.479 1.479"/>
  <path fill="#263238" d="M133.218 189.592s.077-.009.218-.034c.137-.024.345-.082.568-.229.22-.147.459-.397.575-.761.061-.18.077-.376.07-.599q0-.33-.006-.696c-.006-.984-.009-2.146-.018-3.432-.006-.642.003-1.332-.012-2.02a1.406 1.406 0 0 0-1.395-1.259 1.4 1.4 0 0 0-1.394 1.262c-.015.688-.006 1.378-.012 2.02l-.024 4.128c-.007.223.009.419.07.599a1.47 1.47 0 0 0 1.143.99c.141.025.217.025.217.034 0 0-.076.015-.22 0a1.4 1.4 0 0 1-.599-.211 1.5 1.5 0 0 1-.624-.782 1.8 1.8 0 0 1-.085-.627q0-.33-.006-.696c-.006-.984-.01-2.145-.019-3.432 0-.648-.012-1.317.003-2.035.037-.37.211-.73.493-.99a1.55 1.55 0 0 1 2.115 0c.282.26.456.62.493.99.015.718 0 1.384.003 2.035l-.025 4.128c.003.217-.018.44-.085.627a1.5 1.5 0 0 1-.624.782 1.4 1.4 0 0 1-.599.211c-.144.015-.221 0-.221 0z"/>
  <path fill="#455a64" d="M133.212 182.797a.42.42 0 0 0-.352.345c-.021.174.098.361.273.4.171.04.419-.116.441-.29.024-.174-.049-.422-.362-.455"/>
  <path fill="#263238" d="M133.212 182.796s.034-.022.098-.012a.36.36 0 0 1 .239.128.46.46 0 0 1 .085.403.49.49 0 0 1-.403.309c-.214.021-.37-.141-.419-.287a.41.41 0 0 1 .076-.404c.162-.18.33-.153.324-.137.006.024-.131.046-.235.201a.3.3 0 0 0-.028.288c.04.101.15.198.263.18.123-.012.248-.107.282-.199a.38.38 0 0 0-.037-.29c-.098-.15-.254-.153-.245-.183z"/>
  <path fill="#455a64" d="M133.218 186.441a.42.42 0 0 0-.352.346.374.374 0 0 0 .273.4c.171.04.419-.116.44-.29.025-.174-.048-.422-.361-.456"/>
  <path fill="#263238" d="M133.219 186.44s.033-.021.097-.012a.36.36 0 0 1 .239.128.47.47 0 0 1 .086.404.49.49 0 0 1-.404.308c-.214.022-.37-.14-.419-.287a.41.41 0 0 1 .076-.403c.163-.18.331-.153.325-.138.006.025-.132.046-.236.202a.3.3 0 0 0-.027.287c.039.101.149.199.263.181.122-.013.247-.107.281-.199a.38.38 0 0 0-.037-.29c-.098-.15-.254-.153-.244-.184z"/>
  <path fill="#455a64" d="M129.369 189.298a1.48 1.48 0 0 1-1.48-1.479v-6.154a1.48 1.48 0 0 1 2.96 0v6.154a1.48 1.48 0 0 1-1.48 1.479"/>
  <path fill="#263238" d="M129.369 189.297s.076-.009.217-.034a1.5 1.5 0 0 0 .569-.229c.22-.146.458-.397.574-.761.062-.18.077-.376.071-.599q0-.33-.006-.696c-.006-.984-.009-2.145-.019-3.432-.006-.642.003-1.332-.012-2.02a1.404 1.404 0 0 0-1.394-1.259 1.403 1.403 0 0 0-1.394 1.262c-.016.688-.006 1.378-.013 2.02l-.024 4.128c-.006.224.009.419.07.599a1.47 1.47 0 0 0 1.144.99c.14.025.217.025.217.034 0 0-.077.015-.22 0a1.49 1.49 0 0 1-1.223-.993 1.7 1.7 0 0 1-.086-.626q0-.331-.006-.697c-.006-.984-.009-2.145-.018-3.432 0-.648-.013-1.317.003-2.035.036-.37.211-.73.492-.99a1.55 1.55 0 0 1 2.116 0c.281.26.455.62.492.99.015.718 0 1.384.003 2.035l-.024 4.129c.003.216-.016.44-.086.626a1.49 1.49 0 0 1-1.223.993c-.144.015-.22 0-.22 0z"/>
  <path fill="#455a64" d="M129.363 182.797a.42.42 0 0 0-.352.345.37.37 0 0 0 .272.4c.175.04.42-.116.441-.29.025-.174-.049-.422-.361-.455"/>
  <path fill="#263238" d="M129.363 182.798s.034-.022.098-.013a.36.36 0 0 1 .238.129.46.46 0 0 1 .086.403.49.49 0 0 1-.404.309c-.214.021-.369-.141-.418-.287a.41.41 0 0 1 .076-.404c.162-.18.33-.153.324-.137.006.024-.131.046-.235.201a.3.3 0 0 0-.028.288c.04.1.15.198.263.18.122-.012.248-.107.281-.199a.37.37 0 0 0-.036-.29c-.098-.15-.254-.153-.245-.183z"/>
  <path fill="#455a64" d="M127.824 184.467a3.11 3.11 0 0 0 3.055.232z"/>
  <path fill="#263238" d="M130.882 184.699c.009.015-.144.122-.422.22-.278.1-.688.177-1.144.143a2.9 2.9 0 0 1-1.106-.315c-.26-.14-.395-.268-.383-.281.025-.045.63.379 1.505.44.871.074 1.535-.253 1.553-.204z"/>
  <path fill="#455a64" d="M150.169 186.308a1.48 1.48 0 0 1-1.48-1.479v-6.155a1.48 1.48 0 0 1 2.96 0v6.155a1.48 1.48 0 0 1-1.48 1.479"/>
  <path fill="#263238" d="M150.169 186.307s.077-.009.217-.034c.138-.024.346-.082.569-.229.22-.147.459-.397.575-.761.061-.18.076-.376.07-.599q0-.33-.006-.697c-.006-.984-.009-2.145-.018-3.431-.006-.642.003-1.333-.013-2.02a1.4 1.4 0 0 0-1.394-1.259 1.4 1.4 0 0 0-1.394 1.262c-.015.688-.006 1.378-.012 2.02l-.025 4.128c-.006.223.009.419.071.599a1.47 1.47 0 0 0 1.143.99c.141.025.217.025.217.034 0 0-.076.015-.22 0a1.5 1.5 0 0 1-1.223-.993 1.8 1.8 0 0 1-.086-.627q0-.33-.006-.696c-.006-.984-.009-2.146-.018-3.432 0-.648-.012-1.317.003-2.035a1.556 1.556 0 0 1 3.1 0c.016.718 0 1.384.003 2.035l-.024 4.128c.003.217-.015.44-.086.627a1.5 1.5 0 0 1-.623.782 1.4 1.4 0 0 1-.6.211c-.143.015-.22 0-.22 0z"/>
  <path fill="#455a64" d="M150.164 179.51a.42.42 0 0 0-.352.345.37.37 0 0 0 .272.4c.171.04.419-.116.441-.29.024-.174-.049-.422-.361-.455"/>
  <path fill="#263238" d="M150.163 179.511s.034-.022.098-.013a.36.36 0 0 1 .238.129.46.46 0 0 1 .086.403.49.49 0 0 1-.404.309c-.214.021-.37-.141-.419-.288a.41.41 0 0 1 .077-.403c.162-.18.33-.153.324-.137.006.024-.132.045-.235.201a.3.3 0 0 0-.028.288c.04.1.15.198.263.18.122-.012.248-.107.281-.199a.38.38 0 0 0-.036-.29c-.098-.15-.254-.153-.245-.183z"/>
  <path fill="#455a64" d="M150.17 183.156a.42.42 0 0 0-.352.346.37.37 0 0 0 .272.4c.172.04.42-.116.441-.29.025-.175-.049-.422-.361-.456"/>
  <path fill="#263238" d="M150.169 183.157s.034-.021.098-.012a.36.36 0 0 1 .239.128.46.46 0 0 1 .085.404.48.48 0 0 1-.403.308c-.214.022-.37-.14-.419-.287a.41.41 0 0 1 .076-.403c.162-.181.33-.153.324-.138.006.025-.131.046-.235.202a.3.3 0 0 0-.028.287c.04.101.15.199.263.18.123-.012.248-.107.282-.198a.38.38 0 0 0-.037-.291c-.098-.149-.254-.152-.245-.183z"/>
  <path fill="#455a64" d="M146.174 187.73a1.48 1.48 0 0 1-1.48-1.479v-6.155a1.48 1.48 0 0 1 2.96 0v6.155c0 .815-.664 1.479-1.48 1.479"/>
  <path fill="#263238" d="M146.173 187.729s.077-.009.217-.034c.138-.024.346-.082.569-.229.22-.147.459-.397.575-.761.061-.18.076-.376.07-.599q0-.33-.006-.697c-.006-.984-.009-2.145-.018-3.431-.007-.642.003-1.333-.013-2.02a1.4 1.4 0 0 0-1.394-1.259 1.4 1.4 0 0 0-1.394 1.262c-.015.687-.006 1.378-.012 2.02l-.025 4.128c-.006.223.009.419.07.599a1.48 1.48 0 0 0 1.144.99c.141.025.217.025.217.034 0 0-.076.015-.22 0a1.49 1.49 0 0 1-1.223-.993 1.8 1.8 0 0 1-.086-.627q0-.33-.006-.697c-.006-.984-.009-2.145-.018-3.431 0-.648-.012-1.317.003-2.035a1.57 1.57 0 0 1 .492-.99 1.554 1.554 0 0 1 2.116 0c.281.259.456.62.492.99.016.718 0 1.384.003 2.035l-.024 4.128c.003.217-.015.44-.086.627a1.5 1.5 0 0 1-.623.782 1.45 1.45 0 0 1-.6.211c-.143.015-.22 0-.22 0z"/>
  <path fill="#455a64" d="M146.17 181.229a.42.42 0 0 0-.352.345.374.374 0 0 0 .273.4c.171.04.419-.116.441-.29.024-.174-.049-.422-.362-.455"/>
  <path fill="#263238" d="M146.17 181.229s.033-.021.098-.012a.36.36 0 0 1 .238.128.46.46 0 0 1 .086.404.48.48 0 0 1-.404.308c-.214.022-.37-.14-.419-.287a.41.41 0 0 1 .077-.403c.162-.18.33-.153.324-.138.006.025-.132.046-.236.202a.3.3 0 0 0-.027.287c.04.101.15.199.263.181.122-.013.247-.107.281-.199a.37.37 0 0 0-.037-.29c-.097-.15-.253-.153-.244-.184z"/>
  <path fill="#455a64" d="M144.632 182.898a3.11 3.11 0 0 0 3.054.233z"/>
  <path fill="#263238" d="M147.687 183.13c.009.016-.144.122-.422.22a2.9 2.9 0 0 1-2.251-.171c-.26-.14-.394-.269-.382-.281.025-.046.63.379 1.504.44.872.073 1.535-.254 1.554-.205z"/>
  <path fill="#455a64" d="M125.676 191.27a1.535 1.535 0 0 1-1.511-1.559l.174-11.178a1.534 1.534 0 0 1 3.07.049l-.174 11.178a1.533 1.533 0 0 1-1.559 1.51"/>
  <path fill="#263238" d="M125.672 191.27s.113 0 .321-.046a1.53 1.53 0 0 0 1.122-1.005c.083-.229.077-.492.077-.782l.018-1.953c.019-1.451.04-3.172.061-5.085l.043-3q.004-.39.012-.789a1.465 1.465 0 0 0-1.434-1.506 1.48 1.48 0 0 0-1.287.73 1.5 1.5 0 0 0-.192.727c-.003.266-.01.529-.013.789q-.025 1.564-.052 3.004l-.094 5.084-.043 1.953c-.006.29-.022.553.055.782.07.229.186.422.318.572.266.299.572.418.77.47.205.049.318.046.318.055 0 0-.113.016-.327-.024a1.5 1.5 0 0 1-.81-.462 1.6 1.6 0 0 1-.346-.589c-.082-.242-.073-.523-.07-.807l.018-1.953c.019-1.451.04-3.172.062-5.085.012-.956.027-1.961.042-3.003q.004-.39.013-.789c0-.275.073-.559.214-.803.278-.495.84-.825 1.424-.813a1.63 1.63 0 0 1 1.401.855c.131.251.195.535.186.81l-.012.789q-.026 1.565-.052 3c-.037 1.91-.067 3.634-.095 5.085l-.042 1.953c-.007.284-.004.565-.095.803a1.55 1.55 0 0 1-1.187 1.018c-.214.034-.327.015-.327.015zm11.136-8.235.269 4.125a.51.51 0 0 0 .541.477l2.875-.186a.51.51 0 0 0 .477-.541l-.27-4.126a.51.51 0 0 0-.541-.476l-2.874.186a.51.51 0 0 0-.477.541m3.094 3.89-1.834.119a.51.51 0 0 1-.541-.476l-.19-2.9a.51.51 0 0 1 .477-.541l1.835-.119a.51.51 0 0 1 .541.476l.189 2.9a.51.51 0 0 1-.477.541"/>
  <path fill="#263238" d="M141.676 184.447c-.019.046-.615-.257-1.407-.211-.792.034-1.354.395-1.379.349-.009-.015.113-.129.355-.251a2.6 2.6 0 0 1 1.015-.26 2.6 2.6 0 0 1 1.036.156c.251.098.386.196.38.214zm.082 1.076c-.018.046-.593-.272-1.366-.208-.774.049-1.297.447-1.321.404-.013-.015.101-.134.327-.269s.578-.266.981-.294c.404-.027.771.049 1.015.15.245.098.373.202.364.217"/>
  <path fill="#e0e0e0" d="M321.395 134.633h-3.86v102.92h3.86z"/>
  <path fill="#263238" d="M321.399 237.558s-.004-.182-.008-.534q-.002-.533-.009-1.556c0-1.369-.008-3.378-.017-5.973-.008-5.184-.021-12.687-.034-21.979-.013-18.572-.029-44.282-.046-72.878l.11.11h-3.86l.11-.11c-.038 49.592-.072 91.267-.08 102.92l-.03-.03c1.319.009 2.282.013 2.918.017s.946.013.946.013-.297.009-.929.013c-.64 0-1.607.008-2.935.017h-.03v-.03c-.008-11.653-.042-53.328-.08-102.92v-.111h4.08v.111c-.017 28.626-.034 54.37-.047 72.962-.012 9.28-.025 16.775-.033 21.955-.009 2.581-.013 4.582-.017 5.947 0 .674-.005 1.191-.009 1.539 0 .347-.008.521-.008.521z"/>
  <path fill="#e8505b" d="M328.604 136.982c11.328-5.044 16.421-18.31 11.375-29.632-5.046-11.321-18.32-16.411-29.648-11.368s-16.421 18.309-11.375 29.631 18.32 16.412 29.648 11.369"/>
  <path fill="#fff" d="M339.68 115.637s-.017-.11-.039-.326l-.067-.958c-.013-.212-.03-.45-.047-.704-.03-.259-.085-.538-.132-.844-.097-.61-.19-1.314-.424-2.081-.36-1.556-1.09-3.396-2.243-5.346a20.1 20.1 0 0 0-5.116-5.688c-2.273-1.704-5.136-3.154-8.445-3.735-3.282-.564-6.994-.462-10.523.882-.899.288-1.743.733-2.612 1.148-.425.23-.827.496-1.247.747-.429.237-.819.534-1.209.83-.815.56-1.527 1.259-2.269 1.929-.675.746-1.383 1.475-1.96 2.319-1.192 1.653-2.231 3.493-2.863 5.511a21.3 21.3 0 0 0-1.031 6.312c.03 2.17.378 4.307 1.031 6.316.628 2.022 1.671 3.858 2.863 5.515.581.848 1.289 1.577 1.96 2.319.746.674 1.459 1.373 2.269 1.929.39.301.78.593 1.209.83.42.251.822.518 1.247.747.869.415 1.713.86 2.612 1.148 3.534 1.34 7.241 1.446 10.523.882 3.309-.585 6.172-2.035 8.445-3.739a20.1 20.1 0 0 0 5.116-5.689c1.153-1.95 1.887-3.789 2.243-5.345.234-.767.327-1.471.424-2.082.047-.305.102-.585.132-.843.017-.259.03-.492.047-.704l.067-.958q.025-.325.039-.326.012.001 0 .326-.012.351-.03.962-.013.32-.026.708c-.021.259-.072.543-.114.848-.085.615-.17 1.327-.395 2.103-.339 1.572-1.056 3.438-2.205 5.422a20.2 20.2 0 0 1-5.137 5.794c-2.29 1.743-5.191 3.226-8.55 3.837-3.334.589-7.105.496-10.706-.861-.916-.292-1.777-.742-2.664-1.161-.432-.233-.844-.505-1.272-.755-.433-.241-.831-.542-1.234-.843-.832-.568-1.557-1.276-2.316-1.963-.687-.759-1.408-1.501-2.002-2.361-1.217-1.683-2.278-3.557-2.922-5.617a21.6 21.6 0 0 1-1.052-6.435 21.6 21.6 0 0 1 1.056-6.435c.645-2.06 1.705-3.934 2.922-5.617.594-.86 1.315-1.602 2.002-2.361.759-.687 1.485-1.395 2.316-1.963.399-.305.797-.602 1.23-.843.428-.254.84-.522 1.272-.755.887-.424 1.748-.873 2.664-1.161 3.601-1.357 7.372-1.446 10.706-.86 3.359.606 6.26 2.093 8.55 3.836a20.2 20.2 0 0 1 5.137 5.794c1.149 1.98 1.866 3.845 2.205 5.422.225.776.306 1.488.395 2.103.042.305.089.589.114.848q.013.388.026.708.018.611.03.962c.004.216 0 .326 0 .326z"/>
  <path fill="#fafafa" d="M331.159 113.105h-23.384v4.875h23.384z"/>
  <path fill="#ebebeb" d="M60.286 171.029s-4.766 1.643.094 11.824c4.854 10.181 8.272 15.246 8.272 15.246s.845 2.357-1.13 2.665-6.279-.497-7.219 1.879c-.975 2.464.775 4.863 4.387 7.026 3.613 2.162 11.358 7.179 12.062 7.64.686.449 1.354 1.554.047 1.98-1.313.425-11.062 1.175-10.43 5.785.633 4.603 11.695 8.97 12.895 9.466 1.2.502 1.479 1.022 1.36 1.684-.118.662-3.417.609-6.184.934s-5.912 1.193-5.327 3.817c.591 2.624 7.06 8.285 23.076 10.288l7.485.443 4.245-6.216c8.278-13.857 7.799-22.431 6.09-24.511-1.708-2.08-4.328-.13-6.285 1.843-1.963 1.974-3.95 4.615-4.54 4.296-.598-.313-.834-.857-.491-2.109s3.707-12.652.467-15.985c-3.24-3.332-9.838 3.889-10.98 4.657-1.14.768-1.602-.437-1.53-1.253.07-.833.874-10.022 1.394-14.199.52-4.178-.295-7.026-2.837-7.777-2.454-.721-4.47 3.162-5.925 4.527-1.46 1.365-2.796-.751-2.796-.751s-1.892-5.809-6.936-15.901c-5.037-10.093-9.36-7.257-9.36-7.257"/>
  <path fill="#e0e0e0" d="M100.017 253.478c-3.672-7.427-9.98-20.729-15.45-32.127-5.468-11.393-10.435-21.705-14.065-29.144-1.815-3.711-3.293-6.719-4.316-8.811-.503-1.034-.899-1.837-1.17-2.399-.13-.266-.231-.478-.302-.626-.065-.142-.095-.219-.095-.219l.118.207c.077.148.184.349.32.615.284.549.686 1.353 1.212 2.375 1.046 2.068 2.542 5.064 4.38 8.775 3.672 7.428 8.663 17.727 14.132 29.114 5.474 11.399 11.754 24.712 15.39 32.158"/>
  <path fill="#e0e0e0" d="M66.286 204.014s.19.041.52.159c.332.118.799.296 1.378.526 1.159.461 2.743 1.135 4.476 1.915 1.709.774 3.252 1.471 4.428 2.009q.798.356 1.348.597c.32.141.491.224.485.242 0 .018-.19-.042-.52-.154a33 33 0 0 1-1.378-.532c-1.153-.472-2.725-1.17-4.458-1.944-1.709-.762-3.258-1.447-4.44-1.973-.532-.237-.987-.432-1.348-.591-.32-.142-.49-.231-.485-.243zm13.156 4.981c-.06-.023 1.194-3.344 2.796-7.421 1.602-4.078 2.95-7.357 3.01-7.334s-1.189 3.345-2.797 7.422c-1.602 4.072-2.95 7.357-3.01 7.333m7.616 17.875s.1-.172.319-.455l.922-1.188a121 121 0 0 0 2.956-3.977 116 116 0 0 0 2.78-4.107q.486-.753.821-1.258c.195-.296.308-.455.325-.449.012.006-.077.183-.248.496s-.426.756-.757 1.3a67 67 0 0 1-2.731 4.154 69 69 0 0 1-3.022 3.947 36 36 0 0 1-.981 1.147c-.237.266-.373.408-.384.396zm-12.895-1.885s.183-.006.514.023l1.383.148c1.165.136 2.78.337 4.553.573 1.774.237 3.382.467 4.547.639l1.371.218c.326.059.503.095.497.112 0 .018-.183.006-.514-.023l-1.384-.148a327 327 0 0 1-9.093-1.211q-.815-.132-1.372-.219c-.325-.059-.502-.094-.496-.112zm4.718 16.634s.236 0 .656.036c.461.047 1.058.106 1.774.183 1.496.165 3.56.408 5.841.685 2.283.284 4.34.55 5.836.757.71.1 1.307.189 1.762.254.414.065.644.106.644.124s-.236 0-.656-.036c-.461-.047-1.058-.106-1.774-.183a583 583 0 0 1-5.841-.685 459 459 0 0 1-5.83-.757c-.71-.1-1.306-.189-1.762-.254-.414-.065-.644-.106-.644-.124zm16.129 1.885s.124-.219.384-.585l1.112-1.548c.94-1.312 2.223-3.126 3.588-5.165a181 181 0 0 0 3.412-5.289c.408-.655.751-1.199 1.011-1.619.242-.384.378-.591.396-.579.012.006-.1.231-.313.627-.219.396-.538.963-.946 1.66a112 112 0 0 1-7.012 10.471 68 68 0 0 1-1.171 1.507c-.284.348-.444.538-.461.532z"/>
  <path fill="#e8505b" d="M58.417 225.505c-2.79-3.292-3.157-8.574-2.75-12.864.409-4.29 1.408-8.61.728-12.87-.402-2.524-1.384-4.934-1.709-7.464-.33-2.535.136-5.395 2.105-7.031 2.259-1.879 5.812-1.436 8.16.331s3.706 4.538 4.7 7.297c2.181 6.069 2.986 12.799 1.194 18.998-1.791 6.199-6.007 11.735-12.18 13.609m14.563 7.467c.461-1.589 1.443-3.126 2.956-3.776 1.579-.679 3.412-.295 5.026.296 1.614.585 3.205 1.371 4.92 1.477s3.653-.709 4.167-2.346c.485-1.542-.449-3.185-1.614-4.307-2.447-2.358-6.125-3.357-9.43-2.559-3.305.792-6.125 3.35-7.237 6.559"/>
  <path fill="#000" d="M73.228 232.978c.461-1.589 1.443-3.126 2.956-3.776 1.579-.679 3.412-.295 5.026.296 1.614.585 3.205 1.371 4.92 1.477s3.653-.709 4.167-2.346c.485-1.542-.449-3.185-1.614-4.307-2.447-2.358-6.125-3.357-9.43-2.559-3.305.792-6.125 3.35-7.237 6.559" opacity=".3"/>
  <path fill="#e8505b" d="M59.629 239.868c-2.519-2.393-2.395-6.553-1.135-9.791 1.259-3.238 3.996-5.726 7.06-7.363 5.935-3.173 13.361-3.415 19.492-.632-3.015.1-5.924 1.808-7.479 4.39-1.383 2.293-1.685 5.07-2.826 7.493a11.9 11.9 0 0 1-6.38 5.956c-2.778 1.088-5.965 1.064-8.732-.053"/>
  <path fill="#263238" d="M57.081 252.496s-.018-.13-.018-.378 0-.615.012-1.087c.03-.946.119-2.311.325-3.989a52 52 0 0 1 1.065-5.838c.52-2.181 1.407-4.503 2.666-6.766 2.543-4.538 6.114-7.777 8.934-9.614.698-.479 1.372-.845 1.957-1.182a41 41 0 0 1 1.543-.768c.414-.172.745-.308 1.005-.414.23-.094.355-.136.36-.124q0 .017-.336.183c-.254.118-.58.278-.982.467-.413.219-.928.49-1.513.81-.568.348-1.23.72-1.916 1.211-2.773 1.873-6.279 5.094-8.792 9.584-2.56 4.474-3.263 9.183-3.784 12.486a55 55 0 0 0-.42 3.965l-.07 1.082c-.018.248-.036.378-.042.378z"/>
  <path fill="#e8505b" d="M32.84 216.387c-5.162 3.114-5.144 5.944-4.281 8.615s4.026 4.532 6.652 3.528c1.483-.567 2.56-1.856 3.476-3.15s1.78-2.682 3.069-3.61 3.15-1.288 4.446-.366"/>
  <path fill="#000" d="M32.84 216.387c-5.162 3.114-5.144 5.944-4.281 8.615s4.026 4.532 6.652 3.528c1.483-.567 2.56-1.856 3.476-3.15s1.78-2.682 3.069-3.61 3.15-1.288 4.446-.366" opacity=".3"/>
  <path fill="#e8505b" d="M28.979 219.801c1.348-1.861 4.683-2.405 6.788-1.471 2.104.934 3.647 2.771 5.025 4.615 1.378 1.838 2.726 3.782 4.635 5.064 1.91 1.282 4.583 1.743 6.486.455 1.254-.845 1.975-2.322 2.206-3.811.224-1.495.006-3.02-.302-4.497-.455-2.163-1.2-4.42-2.932-5.797-1.928-1.53-4.606-1.601-7.072-1.524-2.826.094-5.693.301-8.348 1.282s-5.357 3.096-6.486 5.684"/>
  <path fill="#263238" d="M52.605 252.231s-.024-.154-.041-.443q-.018-.486-.054-1.282c-.035-1.147-.088-2.742-.148-4.71a290 290 0 0 0-.295-6.973c-.148-2.623-.343-5.507-.745-8.503-.201-1.495-.438-2.96-.851-4.314a23 23 0 0 0-1.58-3.775c-1.205-2.323-2.713-4.172-4.161-5.52a16.2 16.2 0 0 0-3.85-2.635 11 11 0 0 0-1.17-.508c-.272-.112-.414-.172-.408-.183 0-.012.154.035.431.124.284.088.692.224 1.2.461 1.018.449 2.449 1.252 3.944 2.588 1.484 1.341 3.028 3.203 4.263 5.543a22.4 22.4 0 0 1 1.614 3.817c.426 1.383.669 2.854.87 4.361.401 3.013.585 5.903.72 8.532.13 2.63.19 4.994.231 6.985.036 1.991.048 3.599.048 4.71q.001.796-.006 1.282c0 .295-.012.449-.024.449zm2.3.001s-.024-.047-.053-.142q-.052-.167-.13-.431c-.125-.378-.255-.952-.403-1.696-.272-1.483-.52-3.676-.402-6.382a38.5 38.5 0 0 1 1.55-9.354c1.034-3.421 2.506-7.067 3.807-10.967 1.33-3.894 2.1-7.747 2.407-11.293.319-3.545.295-6.76.218-9.454-.083-2.695-.224-4.875-.307-6.376-.042-.733-.071-1.312-.095-1.737l-.017-.449v-.154l.029.154c.012.118.03.265.047.449q.055.63.154 1.731c.124 1.501.296 3.681.408 6.382.106 2.694.154 5.921-.154 9.484-.295 3.563-1.064 7.457-2.4 11.363-1.307 3.912-2.779 7.546-3.825 10.95a39 39 0 0 0-1.603 9.283c-.142 2.688.065 4.869.302 6.352.13.739.242 1.318.343 1.696q.063.267.1.437.034.153.024.154"/>
  <path fill="#e0e0e0" d="M453.289 191.504h-3.539v65.017h3.539z"/>
  <path fill="#e8505b" d="M455.097 189.28a3.565 3.565 0 0 1-3.568 3.566 3.565 3.565 0 1 1 0-7.131 3.565 3.565 0 0 1 3.568 3.565"/>
  <path fill="#e0e0e0" d="M523.612 191.504h-3.539v65.017h3.539z"/>
  <path fill="#e8505b" d="M525.416 189.28a3.565 3.565 0 0 1-3.568 3.566 3.565 3.565 0 1 1 0-7.131 3.565 3.565 0 0 1 3.568 3.565m4.894 8.499h-90.664v16.213h90.664z"/>
  <path fill="#f5f5f5" d="m449.908 197.779-.159.27-9.315 15.943h-.788v-16.213zm22.912 0-9.478 16.213h-12.389l3.768-6.442 5.714-9.771zm22.908 0-9.482 16.213h-12.385l9.479-16.213zm22.904.004-9.482 16.209h-12.385l9.482-16.209zm11.679 0v16.209h-10.642l9.486-16.209z"/>
  <path fill="#e8505b" d="M530.31 222.824h-90.664v16.213h90.664z"/>
  <path fill="#f5f5f5" d="m449.908 222.824-.159.269-9.315 15.944h-.788v-16.213zm22.912 0-9.478 16.213h-12.389l3.768-6.442 5.714-9.771zm22.908 0-9.482 16.213h-12.385l9.479-16.213zm22.904.004-9.482 16.208h-12.385l9.482-16.208zm11.679 0v16.208h-10.642l9.486-16.208z"/>
  <path fill="#263238" d="M530.31 213.991s-.004-.098-.008-.281q-.001-.287-.008-.812c-.004-.722-.012-1.775-.024-3.15-.013-2.757-.029-6.8-.053-11.969l.093.094c-18.589.016-52.256.049-90.655.085h-.004l.179-.179v16.212l-.175-.175c25.671.032 48.309.057 64.543.077 8.123.021 14.638.041 19.14.053 2.246.013 3.98.021 5.172.025q.876.006 1.347.012c.302 0 .466.012.466.012s-.147.008-.441.012c-.306 0-.747.009-1.323.013-1.179.004-2.906.012-5.131.024-4.49.012-10.992.029-19.099.053-16.267.021-38.95.049-64.67.078h-.176v-16.568h.184c38.399.037 72.071.07 90.656.086h.094v.094c-.025 5.193-.041 9.252-.054 12.027a641 641 0 0 1-.024 3.129q-.007.514-.008.795c0 .176-.008.261-.008.261zm0 25.045s-.004-.098-.008-.281q-.001-.287-.008-.812c-.004-.722-.012-1.775-.024-3.15-.013-2.758-.029-6.8-.053-11.969l.093.094c-18.589.016-52.256.048-90.655.085h-.004l.179-.179v16.212l-.175-.175c25.671.032 48.309.057 64.543.077 8.123.021 14.638.041 19.14.053 2.246.012 3.98.021 5.172.025q.876.006 1.347.012c.302 0 .466.012.466.012s-.147.008-.441.012c-.306 0-.747.009-1.323.013-1.179.004-2.906.012-5.131.024-4.49.012-10.992.029-19.099.053-16.267.021-38.95.049-64.67.078h-.176v-16.568h.184c38.399.037 72.071.07 90.656.086h.094v.094c-.025 5.193-.041 9.252-.054 12.027a641 641 0 0 1-.024 3.129q-.007.513-.008.795c0 .176-.008.261-.008.261z"/>
  <path fill="currentColor" d="M581.277 31.7s-.01-.1-.02-.28c0-.2 0-.459-.02-.788 0-.72-.02-1.737-.04-3.045-.02-2.665-.05-6.509-.09-11.36l.16.16c-13.165.02-34.03.06-57.483.1l.26-.26V31.7l-.25-.25c16.391.05 30.714.09 40.982.12 5.124.03 9.229.06 12.086.07 1.398.01 2.487.03 3.266.03.359 0 .639.01.849.02.19 0 .3.01.3.02 0 0-.09.01-.27.02-.21 0-.48 0-.819.02-.759 0-1.838.02-3.206.03-2.847.02-6.932.04-12.026.07-10.308.03-24.701.07-41.162.12h-.25V16.265c.52-.528.15-.16.26-.269 23.453.04 44.318.08 57.483.1h.159v.16c-.04 4.891-.07 8.764-.09 11.45-.02 1.287-.03 2.296-.04 3.005 0 .319-.009.569-.019.768 0 .17-.01.25-.02.25zM361.814 0h-57.482v15.473h57.482zm24.062 31.344s-.01-.1-.02-.28c0-.199 0-.458-.02-.788 0-.719-.02-1.737-.04-3.045-.02-2.665-.05-6.508-.09-11.36l.16.16c-13.164.02-34.03.06-57.482.1l.259-.26v15.473l-.249-.25c16.39.05 30.714.09 40.982.12 5.124.03 9.229.06 12.085.07 1.399.01 2.487.03 3.267.03.359 0 .639.01.849.02.189 0 .299.01.299.02s-.09.01-.27.02c-.209 0-.479 0-.819.02-.759 0-1.837.02-3.206.03-2.846.02-6.932.04-12.026.07-10.308.03-24.701.07-41.161.12h-.25V15.91c.519-.529.15-.16.26-.27 23.452.04 44.318.08 57.482.1h.16v.16c-.04 4.892-.07 8.765-.09 11.45-.02 1.288-.03 2.296-.04 3.005 0 .32-.01.569-.02.769 0 .17-.01.25-.02.25zM167.763 279.268s-.01-.1-.02-.279c0-.2 0-.46-.02-.789 0-.719-.02-1.737-.04-3.045-.02-2.665-.05-6.508-.09-11.36l.16.16c-13.165.02-34.03.06-57.483.1.11-.12-.259.259.26-.26v15.473l-.25-.249c16.391.049 30.714.089 40.982.119 5.124.03 9.229.06 12.086.07 1.398.01 2.487.03 3.266.03.36 0 .639.01.849.02.19 0 .3.01.3.02s-.09.01-.27.02c-.21 0-.479 0-.819.02-.759 0-1.838.02-3.206.03-2.847.02-6.932.04-12.026.07-10.308.03-24.701.07-41.162.12h-.249v-15.703c.519-.529.15-.16.259-.27 23.453.04 44.318.08 57.483.1h.16v.16c-.04 4.892-.07 8.765-.09 11.45-.02 1.288-.03 2.296-.04 3.005 0 .319-.01.569-.02.768 0 .17-.01.25-.02.25z"/>
  <path fill="currentColor" d="M174.165 294.74s-.01-.11-.02-.299c0-.22-.01-.489-.02-.819-.01-.759-.03-1.797-.05-3.104-.03-2.716-.059-6.549-.109-11.251l.199.2c-7.651.02-17.729.04-28.736.06-.23.229.31-.32.26-.26v7.996c0 2.586 0 5.091-.01 7.477l-.24-.239 20.596.119c2.517.03 4.535.05 5.963.07.669.01 1.198.02 1.608.03.37 0 .559.02.569.03 0 0-.169.02-.519.03-.39 0-.909.02-1.558.03-1.419.02-3.416.04-5.913.07-5.154.03-12.346.07-20.756.12h-.24v-.24c0-2.386 0-4.891-.01-7.477v-7.986c-.06.04.49-.509.26-.269 11.017.02 21.085.049 28.736.059h.2v.2c-.04 4.752-.08 8.625-.11 11.37-.02 1.298-.04 2.316-.05 3.065 0 .319-.02.579-.02.789 0 .179-.01.259-.02.249zM73.624 114.949H16.14v15.473h57.483zm-15.892 31.335s-.01-.1-.02-.28c0-.199 0-.459-.02-.788 0-.719-.02-1.737-.04-3.045-.02-2.665-.05-6.509-.09-11.36l.16.159c-13.164.02-34.03.06-57.482.1.11-.12-.26.26.26-.259v15.473l-.25-.25c16.39.05 30.714.09 40.982.12 5.124.03 9.229.06 12.085.07 1.399.01 2.487.03 3.267.03.36 0 .639.01.848.02.19 0 .3.01.3.02s-.09.01-.27.02c-.21 0-.479 0-.819.02-.759 0-1.837.02-3.206.03-2.846.02-6.932.04-12.026.069-10.308.03-24.7.07-41.161.12H0v-15.702c.52-.529.15-.16.26-.27 23.452.04 44.318.08 57.482.1h.16v.16c-.04 4.891-.07 8.764-.09 11.45-.02 1.287-.03 2.296-.04 3.004 0 .32-.01.569-.02.769 0 .17-.01.25-.02.25zM604 171.701h-57.482v15.473H604zm-15.891 31.335s-.01-.1-.02-.28c0-.199 0-.459-.02-.788 0-.719-.02-1.737-.04-3.045-.02-2.666-.05-6.509-.09-11.36l.16.159c-13.165.02-34.03.06-57.483.1.11-.12-.26.26.26-.259v15.473l-.25-.25c16.391.05 30.714.09 40.982.12 5.124.03 9.229.06 12.086.07 1.398.01 2.487.03 3.266.03.36 0 .639.01.849.02.19 0 .3.01.3.02s-.09.01-.27.02c-.21 0-.48 0-.819.02-.759 0-1.838.02-3.206.03-2.847.019-6.932.039-12.026.069-10.308.03-24.701.07-41.162.12h-.25v-15.702c.52-.529.15-.16.26-.27 23.453.04 44.318.08 57.483.1h.159v.16c-.04 4.891-.07 8.764-.09 11.45-.019 1.287-.029 2.296-.039 3.004 0 .32-.01.569-.02.769 0 .17-.01.25-.02.25zm-197.858 52.519h-57.482v15.473h57.482zm24.062 31.336s-.01-.1-.02-.279c0-.2 0-.46-.02-.789 0-.719-.02-1.737-.04-3.045-.02-2.665-.05-6.508-.09-11.36l.16.16c-13.165.02-34.03.06-57.483.1.11-.12-.259.259.26-.26v15.473l-.25-.249c16.391.049 30.714.089 40.982.119 5.124.03 9.229.06 12.086.07 1.398.01 2.487.03 3.266.03.36 0 .639.01.849.02.19 0 .3.01.3.02 0 0-.09.01-.27.02-.21 0-.479 0-.819.02-.759 0-1.838.02-3.206.03-2.847.02-6.932.04-12.026.07-10.308.03-24.701.07-41.162.12h-.249v-15.703c.519-.529.149-.16.259-.269 23.453.039 44.318.079 57.483.099h.16v.16c-.04 4.892-.07 8.765-.09 11.45-.02 1.288-.03 2.296-.04 3.005 0 .319-.01.569-.02.769 0 .169-.01.249-.02.249zM166.994 53.776s-.01-.1-.02-.28c0-.2 0-.459-.02-.788 0-.719-.02-1.737-.04-3.045-.02-2.665-.05-6.509-.09-11.36l.16.16c-13.165.02-34.03.06-57.483.1l.26-.26v15.473l-.25-.25c16.391.05 30.714.09 40.982.12 5.124.03 9.229.06 12.086.07 1.398.01 2.487.03 3.266.03.36 0 .639.01.849.02.19 0 .3.01.3.02 0 0-.09.01-.27.02-.21 0-.479 0-.819.02-.759 0-1.838.02-3.206.03-2.847.02-6.932.04-12.026.07-10.308.03-24.701.07-41.162.12h-.249V38.341c.519-.528.15-.159.259-.269 23.453.04 44.318.08 57.483.1h.16v.16c-.04 4.891-.07 8.765-.09 11.45-.02 1.288-.03 2.296-.04 3.005 0 .32-.01.569-.02.768 0 .17-.01.25-.02.25z"/>
  <defs>
    <clipPath id="a">
      <path fill="#fff" d="M96.047 50.91h441.481v142.751H96.048z"/>
    </clipPath>
  </defs>
</svg>
