<svg xmlns="http://www.w3.org/2000/svg" fill="none" viewBox="0 0 21 20">
  <path fill="currentColor" fill-rule="evenodd" d="M14.666 7.5h-5C8.746 7.5 8 8.246 8 9.167v5c0 .92.746 1.667 1.666 1.667h5c.92 0 1.667-.747 1.667-1.667v-5c0-.92-.746-1.667-1.667-1.667m-5-1.666a3.333 3.333 0 0 0-3.333 3.333v5A3.333 3.333 0 0 0 9.666 17.5h5A3.333 3.333 0 0 0 18 14.167v-5a3.333 3.333 0 0 0-3.334-3.333z" clip-rule="evenodd"/>
  <path fill="currentColor" fill-rule="evenodd" d="M6.333 4.167h5c.92 0 1.667.746 1.667 1.666h1.667A3.333 3.333 0 0 0 11.333 2.5h-5A3.333 3.333 0 0 0 3 5.833v5a3.333 3.333 0 0 0 3.333 3.334V12.5c-.92 0-1.666-.746-1.666-1.667v-5c0-.92.746-1.666 1.666-1.666" clip-rule="evenodd"/>
</svg>
