<svg xmlns="http://www.w3.org/2000/svg" fill="none" viewBox="0 0 16 16">
  <path fill="currentColor" fill-rule="evenodd" d="M11.267 4a3.334 3.334 0 0 0-6.533 0H2.001a.667.667 0 0 0 0 1.333h.712l.446 6.237a3.333 3.333 0 0 0 3.325 3.096h3.034c1.748 0 3.2-1.351 3.324-3.096l.446-6.237h.713A.667.667 0 0 0 14 4zM8.001 2.666A2 2 0 0 0 6.114 4h3.773A2 2 0 0 0 8 2.666Zm-1.334 4c.369 0 .667.299.667.667v4a.667.667 0 1 1-1.333 0v-4c0-.368.298-.667.666-.667m3.334.667a.667.667 0 0 0-1.334 0v4a.667.667 0 1 0 1.334 0z" clip-rule="evenodd"/>
</svg>
