<svg xmlns="http://www.w3.org/2000/svg" fill="none" viewBox="0 0 16 16">
  <path fill="currentColor" fill-rule="evenodd" d="M10.28 2.451a1.54 1.54 0 0 1 2.179 0l1.09 1.09a1.54 1.54 0 0 1 0 2.18l-.967.966-.238-.122c-.557-.293-1.218-.705-1.711-1.198s-.905-1.154-1.198-1.711l-.122-.238.966-.967Zm-.354 3.623c.583.584 1.326 1.043 1.914 1.356l-3.8 3.8a1.54 1.54 0 0 1-.872.435l-2.288.327a.77.77 0 0 1-.872-.872l.327-2.288c.047-.33.2-.636.436-.872l3.8-3.8c.312.588.771 1.33 1.355 1.914M2.5 13a.5.5 0 0 0 0 1h11a.5.5 0 0 0 0-1z" clip-rule="evenodd"/>
</svg>
