<svg xmlns="http://www.w3.org/2000/svg" fill="none" viewBox="0 0 120 120">
  <g clip-path="url(#a)">
    <path fill="url(#b)" d="M60.227 113.453c29.396 0 53.226-23.83 53.226-53.226S89.623 7 60.227 7 7 30.83 7 60.227s23.83 53.226 53.227 53.226"/>
    <path fill="#fff" stroke="#8f8f8f" stroke-miterlimit="10" d="M78.31 46.714C78.31 35.277 68.953 26 57.418 26s-20.892 9.277-20.892 20.714c0 1.495.166 2.953.467 4.358C29.062 52.365 23 59.19 23 67.427 23 76.585 30.487 84 39.715 84h38.481C88.579 84 97 75.65 97 65.357s-8.361-18.583-18.69-18.643Z"/>
    <path fill="#dedede" d="m113 99.164-8.894-8.863c3.786-4.377 6.086-10.073 6.086-16.291 0-13.791-11.257-25.01-25.096-25.01S60 60.219 60 74.01c0 13.79 11.257 25.01 25.096 25.01a25 25 0 0 0 15.043-5.01l9.021 8.99 3.84-3.827zM65.434 74.001c0-10.804 8.821-19.595 19.662-19.595s19.662 8.791 19.662 19.595-8.82 19.594-19.662 19.594c-10.84 0-19.662-8.79-19.662-19.594"/>
    <path stroke="#8f8f8f" stroke-miterlimit="10" d="M104.106 90.301 113 99.164v.01m-8.894-8.873c3.786-4.377 6.086-10.073 6.086-16.291 0-13.791-11.257-25.01-25.096-25.01S60 60.219 60 74.01c0 13.79 11.257 25.01 25.096 25.01a25 25 0 0 0 15.043-5.01l9.021 8.99 3.84-3.827m-8.894-8.872L113 99.173M65.434 74.001c0-10.804 8.821-19.595 19.662-19.595s19.662 8.791 19.662 19.595-8.82 19.594-19.662 19.594c-10.84 0-19.662-8.79-19.662-19.594Z"/>
  </g>
  <defs>
    <linearGradient id="b" x1="60.227" x2="60.227" y1="113.667" y2="7" gradientUnits="userSpaceOnUse">
      <stop stop-color="#fff" stop-opacity="0"/>
      <stop offset="1" stop-color="#e7e7e7"/>
    </linearGradient>
    <clipPath id="a">
      <path fill="#fff" d="M0 0h120v120H0z"/>
    </clipPath>
  </defs>
</svg>
