<svg xmlns="http://www.w3.org/2000/svg" fill="none" viewBox="0 0 20 20">
  <path fill="currentColor" d="M10.7.833c.847 0 1.535.688 1.535 1.536v.447c0 .085.06.159.149.193.35.113.697.257 1.028.425.086.044.181.032.241-.028l.16-.159a1.54 1.54 0 0 1 2.172 0l.99.99c.6.598.6 1.573 0 2.172l-.159.158c-.06.06-.07.154-.027.242.168.33.312.678.428 1.029.031.091.106.15.19.15h.224c.848 0 1.536.688 1.537 1.533v1.4c0 .848-.69 1.536-1.537 1.536h-.223a.2.2 0 0 0-.19.15 7 7 0 0 1-.425 1.029c-.045.086-.033.18.027.241l.159.16a1.537 1.537 0 0 1 0 2.172l-.99.99c-.6.6-1.575.6-2.174 0l-.159-.159c-.06-.06-.153-.07-.24-.027a8 8 0 0 1-1.03.427c-.09.032-.15.106-.15.19 0 .849-.689 1.537-1.536 1.537H9.3c-.847 0-1.535-.69-1.535-1.536a.2.2 0 0 0-.15-.19 7 7 0 0 1-1.03-.425c-.086-.045-.181-.033-.241.027l-.157.158c-.599.6-1.573.6-2.172 0l-.99-.99a1.54 1.54 0 0 1 0-2.173l.159-.158c.06-.06.07-.154.027-.241a8 8 0 0 1-.428-1.03c-.031-.091-.106-.15-.19-.15h-.224a1.537 1.537 0 0 1-1.536-1.535v-1.4c0-.847.688-1.535 1.536-1.536h.224c.084 0 .158-.059.19-.15a7 7 0 0 1 .425-1.03c.044-.086.033-.18-.027-.24l-.16-.157a1.54 1.54 0 0 1 0-2.173l.992-.99a1.54 1.54 0 0 1 2.173 0l.158.16c.06.06.154.07.241.027a7.5 7.5 0 0 1 1.03-.428c.09-.032.15-.106.15-.19v-.448c0-.848.688-1.536 1.535-1.536zM9.301 2.176a.195.195 0 0 0-.196.194v.447c0 .665-.428 1.253-1.07 1.465a6.5 6.5 0 0 0-.846.352 1.54 1.54 0 0 1-1.793-.278l-.159-.159a.194.194 0 0 0-.274 0l-.991.99a.195.195 0 0 0 0 .276l.159.156c.469.469.58 1.19.277 1.793a6 6 0 0 0-.351.846 1.55 1.55 0 0 1-1.465 1.07h-.224a.195.195 0 0 0-.194.195v1.4c0 .107.087.195.194.195h.224a1.55 1.55 0 0 1 1.464 1.067c.096.289.212.576.351.848a1.54 1.54 0 0 1-.277 1.793l-.16.16a.195.195 0 0 0 0 .274l.992.991a.195.195 0 0 0 .274 0l.157-.16a1.54 1.54 0 0 1 1.085-.447c.24 0 .484.056.71.17q.412.21.846.352c.64.212 1.07.801 1.07 1.465 0 .107.088.194.195.194h1.4a.195.195 0 0 0 .195-.194c0-.664.431-1.252 1.068-1.464.288-.096.574-.213.847-.352a1.54 1.54 0 0 1 1.792.278l.16.158a.194.194 0 0 0 .274 0l.991-.99a.194.194 0 0 0 0-.275l-.159-.159a1.55 1.55 0 0 1-.277-1.793q.21-.411.351-.846a1.55 1.55 0 0 1 1.465-1.07h.224a.195.195 0 0 0 .194-.195l.003-1.398a.195.195 0 0 0-.195-.194h-.224a1.54 1.54 0 0 1-1.464-1.07 6.4 6.4 0 0 0-.351-.848 1.54 1.54 0 0 1 .277-1.793l.158-.16a.194.194 0 0 0 0-.273l-.99-.99a.195.195 0 0 0-.275 0l-.159.16a1.55 1.55 0 0 1-1.793.277 6 6 0 0 0-.845-.352 1.55 1.55 0 0 1-1.07-1.465V2.37a.195.195 0 0 0-.196-.194zM10 6.646a3.58 3.58 0 0 1 3.577 3.578A3.58 3.58 0 0 1 10 13.8a3.58 3.58 0 0 1-3.577-3.577A3.58 3.58 0 0 1 10 6.646m0 1.342a2.24 2.24 0 0 0-2.235 2.236A2.24 2.24 0 0 0 10 12.459a2.24 2.24 0 0 0 2.235-2.235A2.24 2.24 0 0 0 10 7.988"/>
</svg>
