<svg xmlns="http://www.w3.org/2000/svg" fill="none" viewBox="0 0 25 24">
  <g clip-path="url(#a)">
    <path fill="currentColor" d="M12.5 22c5.514 0 10-4.486 10-10s-4.486-10-10-10-10 4.486-10 10 4.486 10 10 10m-6.52-5.063c.792-.312 1.79-.56 2.911-.73.153.914.355 1.761.604 2.509q.196.585.41 1.044a8.2 8.2 0 0 1-3.925-2.823M4.318 12c0-1.197.258-2.334.722-3.36.983.421 2.225.747 3.624.957a27.6 27.6 0 0 0 0 4.806c-1.399.21-2.64.536-3.624.957A8.1 8.1 0 0 1 4.318 12M12.5 3.818c.196 0 .766.499 1.28 2.041a15 15 0 0 1 .52 2.132 26 26 0 0 1-3.6 0 15 15 0 0 1 .52-2.132c.514-1.542 1.084-2.04 1.28-2.04m0 6.053q1.04 0 2.029-.074a26 26 0 0 1 0 4.406 27.6 27.6 0 0 0-4.058 0 26 26 0 0 1 0-4.406q.988.074 2.029.074m8.182 2.13a8.1 8.1 0 0 1-.722 3.359c-.983-.421-2.225-.747-3.625-.957a27.6 27.6 0 0 0 0-4.806c1.4-.21 2.642-.536 3.625-.957a8.1 8.1 0 0 1 .722 3.36M12.5 20.18c-.196 0-.766-.498-1.28-2.04a15 15 0 0 1-.52-2.132 26 26 0 0 1 3.6 0 15 15 0 0 1-.52 2.132c-.514 1.542-1.084 2.04-1.28 2.04m2.595-.421q.214-.459.41-1.044c.25-.748.451-1.595.604-2.51 1.12.171 2.118.42 2.91.731a8.2 8.2 0 0 1-3.924 2.823M19.02 7.063c-.793.311-1.79.56-2.911.73a17 17 0 0 0-.604-2.509q-.196-.585-.41-1.044a8.2 8.2 0 0 1 3.925 2.823M9.905 4.24q-.214.459-.41 1.044c-.25.748-.451 1.595-.604 2.51-1.12-.171-2.119-.42-2.91-.731A8.2 8.2 0 0 1 9.904 4.24"/>
  </g>
  <defs>
    <clipPath id="a">
      <path fill="currentColor" d="M2.5 2h20v20h-20z"/>
    </clipPath>
  </defs>
</svg>
