<svg xmlns="http://www.w3.org/2000/svg" fill="none" viewBox="0 0 24 24">
  <path fill="currentColor" d="M19.428 3.745c-2.421-.123-4.426-.877-6.31-2.367a1.73 1.73 0 0 0-2.159 0C9.076 2.868 7.071 3.62 4.65 3.745A1.74 1.74 0 0 0 3 5.483v7.962c0 2.258 1.123 4.445 3.25 6.322 1.49 1.314 3.533 2.503 5.465 3.178a.98.98 0 0 0 .646 0c1.933-.675 3.976-1.864 5.465-3.178 2.126-1.877 3.25-4.062 3.25-6.322V5.483a1.74 1.74 0 0 0-1.65-1.738zm-.31 9.7c0 3.843-4.457 6.53-7.08 7.53-2.622-1.001-7.079-3.687-7.079-7.53V5.69c2.662-.174 4.981-1.05 7.08-2.67 2.098 1.62 4.417 2.496 7.079 2.67zm-8.614-.235 4.71-4.71A.979.979 0 1 1 16.6 9.885l-5.614 5.614a.98.98 0 0 1-1.54-.204l-2.125-3.68a.98.98 0 0 1 1.696-.98l1.486 2.574.002.001Z"/>
</svg>
