<svg xmlns="http://www.w3.org/2000/svg" fill="none" viewBox="0 0 24 24">
  <path fill="currentColor" fill-rule="evenodd" d="M6.86 3.69c-.588 0-1.06.472-1.06 1.06v14.39c0 .588.472 1.06 1.06 1.06h10.28a1.07 1.07 0 0 0 1.06-1.065V4.75c0-.588-.472-1.06-1.06-1.06zM3.8 4.75a3.057 3.057 0 0 1 3.06-3.06h10.28a3.057 3.057 0 0 1 3.06 3.06v14.399c-.015 1.68-1.373 3.051-3.06 3.051H6.86a3.057 3.057 0 0 1-3.06-3.06z" clip-rule="evenodd"/>
  <path fill="currentColor" fill-rule="evenodd" d="M6.89 6.86a1 1 0 0 1 1-1h1.03a1 1 0 1 1 0 2H7.89a1 1 0 0 1-1-1m4.11 0a1 1 0 0 1 1-1h4.11a1 1 0 1 1 0 2H12a1 1 0 0 1-1-1M6.89 12a1 1 0 0 1 1-1h1.03a1 1 0 1 1 0 2H7.89a1 1 0 0 1-1-1M11 12a1 1 0 0 1 1-1h4.11a1 1 0 1 1 0 2H12a1 1 0 0 1-1-1m-4.11 5.14a1 1 0 0 1 1-1h1.03a1 1 0 1 1 0 2H7.89a1 1 0 0 1-1-1m4.11 0a1 1 0 0 1 1-1h4.11a1 1 0 1 1 0 2H12a1 1 0 0 1-1-1" clip-rule="evenodd"/>
</svg>
