<svg xmlns="http://www.w3.org/2000/svg" fill="none" viewBox="0 0 16 16">
  <path fill="currentColor" fill-rule="evenodd" d="M12.093 3.909a2.643 2.643 0 0 0-3.738 0l-1.11 1.11a.5.5 0 1 1-.708-.706l1.111-1.111A3.643 3.643 0 1 1 12.8 8.353l-1.111 1.111a.5.5 0 1 1-.707-.707l1.11-1.11a2.643 2.643 0 0 0 0-3.738M9.77 6.232a.5.5 0 0 1 0 .707L6.94 9.767a.5.5 0 0 1-.707-.707l2.828-2.828a.5.5 0 0 1 .708 0M7.648 12.09a2.643 2.643 0 0 1-3.737-3.738l1.11-1.11a.5.5 0 1 0-.706-.708L3.204 7.646a3.643 3.643 0 0 0 5.151 5.152l1.111-1.111a.5.5 0 0 0-.707-.708z" clip-rule="evenodd"/>
</svg>
