<svg xmlns="http://www.w3.org/2000/svg" fill="none" viewBox="0 0 16 16">
  <path fill="currentColor" fill-rule="evenodd" d="M8 4.003a1.333 1.333 0 1 0 0-2.667 1.333 1.333 0 0 0 0 2.667m0 10.666a1.333 1.333 0 1 0 0-2.666 1.333 1.333 0 0 0 0 2.666m5.285-8.178a1.333 1.333 0 1 1-1.334-2.31 1.333 1.333 0 0 1 1.334 2.31m-11.06 4.845a1.333 1.333 0 1 0 2.31-1.333 1.333 1.333 0 0 0-2.31 1.333m9.726.488a1.333 1.333 0 1 1 1.334-2.31 1.333 1.333 0 0 1-1.334 2.31M2.226 4.669a1.333 1.333 0 1 0 2.31 1.334 1.333 1.333 0 0 0-2.31-1.334" clip-rule="evenodd"/>
</svg>
