<svg xmlns="http://www.w3.org/2000/svg" fill="none" viewBox="0 0 20 20">
  <path fill="currentColor" fill-rule="evenodd" d="M5.626 2.708a3.96 3.96 0 0 0-3.958 3.959v6.666a3.96 3.96 0 0 0 3.958 3.959h6.042a3.96 3.96 0 0 0 3.958-3.959.625.625 0 1 0-1.25 0 2.71 2.71 0 0 1-2.708 2.709h-3.78a3.94 3.94 0 0 0 1.072-2.709V6.667c0-1.048-.407-2-1.072-2.709h3.78a2.71 2.71 0 0 1 2.708 2.709.625.625 0 1 0 1.25 0 3.96 3.96 0 0 0-3.958-3.959zm10.33 9.4a.625.625 0 0 1 0-.883l.6-.6H11.46a.625.625 0 0 1 0-1.25h5.096l-.6-.6a.625.625 0 1 1 .885-.884l1.077 1.078c.57.57.57 1.493 0 2.062l-1.077 1.078a.625.625 0 0 1-.884 0" clip-rule="evenodd"/>
</svg>
