<svg xmlns="http://www.w3.org/2000/svg" fill="none" viewBox="0 0 24 24">
  <path fill="currentColor" stroke="currentColor" stroke-width=".25" d="M12 .875c4.69 0 8.504 3.815 8.504 8.504a8.5 8.5 0 0 1-3.867 7.124v5.852c0 .249-.12.479-.318.622l-.088.057a.77.77 0 0 1-.699.014l-.092-.052L12 20.702l-3.44 2.294a.77.77 0 0 1-.694.081l-.096-.043a.77.77 0 0 1-.407-.678v-5.853a8.5 8.5 0 0 1-3.867-7.124C3.496 4.689 7.311.875 12 .875Zm3.098 16.42a8.46 8.46 0 0 1-6.196 0v3.622l2.671-1.78.1-.057a.77.77 0 0 1 .754.057l2.67 1.78v-3.622ZM12 2.415a6.973 6.973 0 0 0-6.965 6.964A6.973 6.973 0 0 0 12 16.344a6.973 6.973 0 0 0 6.965-6.965A6.973 6.973 0 0 0 12 2.414Z"/>
  <path fill="currentColor" stroke="currentColor" stroke-width=".25" d="M12 4.098a.77.77 0 0 1 .687.423l1.212 2.399 2.721.386.107.023a.77.77 0 0 1 .518.504l.025.106a.77.77 0 0 1-.154.605l-.074.081-1.957 1.863.46 2.625.013.108a.77.77 0 0 1-.23.574l-.083.07a.77.77 0 0 1-.708.109l-.1-.043L12 12.679 9.563 13.93a.77.77 0 0 1-.716-.007l-.092-.059a.77.77 0 0 1-.301-.752l.461-2.626-1.957-1.862a.77.77 0 0 1 .422-1.32l2.72-.385 1.213-2.4.055-.092a.77.77 0 0 1 .632-.33Zm-.707 3.875a.77.77 0 0 1-.487.395l-.092.02-1.543.217 1.103 1.052.066.07a.77.77 0 0 1 .173.526l-.011.095-.265 1.506 1.411-.724.085-.037a.77.77 0 0 1 .618.037l1.412.724-.265-1.506a.77.77 0 0 1 .228-.69l1.102-1.053-1.542-.217a.77.77 0 0 1-.531-.334l-.048-.081-.707-1.4z"/>
</svg>
