<svg xmlns="http://www.w3.org/2000/svg" fill="none" viewBox="0 0 24 24">
  <path fill="currentColor" fill-rule="evenodd" d="M20.374 3.626a1 1 0 0 1 0 1.414l-6.833 6.834a1 1 0 0 1-1.415-1.415l6.834-6.833a1 1 0 0 1 1.414 0" clip-rule="evenodd"/>
  <path fill="currentColor" fill-rule="evenodd" d="M15.333 3.667a1 1 0 0 1 1-1h4a1 1 0 0 1 1 1v4a1 1 0 1 1-2 0v-3h-3a1 1 0 0 1-1-1m-11.019.647C5.53 3.097 7.318 2.667 9.5 2.667h1.667a1 1 0 0 1 0 2H9.5c-1.985 0-3.114.403-3.772 1.061S4.667 7.515 4.667 9.5v5c0 1.985.403 3.114 1.06 3.772.66.658 1.788 1.061 3.773 1.061h5c1.985 0 3.114-.403 3.772-1.06.658-.66 1.061-1.788 1.061-3.773v-1.667a1 1 0 1 1 2 0V14.5c0 2.182-.43 3.97-1.647 5.186-1.216 1.217-3.004 1.647-5.186 1.647h-5c-2.182 0-3.97-.43-5.186-1.647-1.217-1.216-1.647-3.004-1.647-5.186v-5c0-2.182.43-3.97 1.647-5.186" clip-rule="evenodd"/>
</svg>
