<svg xmlns="http://www.w3.org/2000/svg" viewBox="0 0 122.61 122.88">
  <path fill="currentColor" d="M23.38 0h13v11.15h-13a12.22 12.22 0 0 0-8.64 3.57 12.22 12.22 0 0 0-3.57 8.64v15.96H0V23.38A23.32 23.32 0 0 1 6.86 6.89 23.3 23.3 0 0 1 23.38 0M3.25 54.91h116.11a3.29 3.29 0 0 1 3.25 3.27v6.52a3.29 3.29 0 0 1-3.25 3.3H3.25A3.28 3.28 0 0 1 0 64.7v-6.52a3.27 3.27 0 0 1 3.25-3.27M90.57 0h8.66a23.28 23.28 0 0 1 16.49 6.86 23.32 23.32 0 0 1 6.87 16.52v15.94h-11.13V23.38a12.2 12.2 0 0 0-3.6-8.63 12.2 12.2 0 0 0-8.64-3.58h-8.65zm32 81.85V99.5a23.46 23.46 0 0 1-23.38 23.38h-8.62v-11.15h8.66a12.29 12.29 0 0 0 12.23-12.23V81.85Zm-86.23 41h-13A23.32 23.32 0 0 1 6.86 116l-.32-.35A23.28 23.28 0 0 1 0 99.5V81.85h11.15V99.5a12.25 12.25 0 0 0 3.35 8.41l.25.22a12.2 12.2 0 0 0 8.63 3.6h13v11.15Z"/>
</svg>
