<svg xmlns="http://www.w3.org/2000/svg" fill="none" viewBox="0 0 16 16">
  <path fill="currentColor" fill-rule="evenodd" d="M8 1.334c-.629 0-.986.482-1.195.847-.219.383-.438.93-.695 1.572l-.045.112a10 10 0 0 1-.359.836c-.09.172-.15.233-.2.27-.048.036-.125.076-.314.113a10 10 0 0 1-.902.103l-.202.018c-.632.057-1.179.106-1.582.202-.397.093-.923.291-1.113.859-.19.567.108 1.043.368 1.357.263.32.67.69 1.14 1.118l.373.34c.263.24.429.392.547.52a.7.7 0 0 1 .163.23 1 1 0 0 1 .029.09c.012.05.02.123-.001.283a10 10 0 0 1-.148.74l-.055.248c-.13.585-.239 1.077-.282 1.455-.038.34-.061.844.273 1.216.175.195.402.336.655.405.484.132.923-.115 1.21-.302.318-.208.708-.526 1.172-.905l.03-.025c.332-.27.546-.444.72-.561.165-.11.246-.136.3-.144a.7.7 0 0 1 .227 0c.053.008.134.034.3.144.174.117.387.29.719.56l.03.026c.464.379.855.697 1.173.905.287.187.726.434 1.21.302.252-.07.48-.21.654-.405.335-.372.312-.875.273-1.216-.043-.378-.152-.87-.281-1.455l-.055-.248a10 10 0 0 1-.148-.74.8.8 0 0 1-.001-.282 1 1 0 0 1 .029-.091.7.7 0 0 1 .163-.23 10 10 0 0 1 .546-.52l.374-.34c.47-.428.876-.798 1.14-1.118.26-.314.558-.79.368-1.357-.19-.568-.717-.766-1.113-.86-.404-.095-.95-.144-1.583-.2l-.201-.019a10 10 0 0 1-.902-.103c-.19-.037-.266-.077-.315-.113-.05-.037-.11-.098-.2-.27a10 10 0 0 1-.358-.836l-.045-.112c-.257-.642-.476-1.19-.695-1.572-.21-.365-.566-.848-1.196-.848m0 9.654q.163 0 .325.026c.316.05.581.186.83.353.234.157.496.37.798.617l.023.019c.503.41.837.682 1.089.846q.053.036.093.058l-.01-.11c-.034-.3-.126-.721-.266-1.355l-.053-.235c-.07-.315-.13-.591-.162-.828a2 2 0 0 1 .026-.776q.033-.13.081-.257c.1-.257.252-.46.426-.65.162-.175.371-.365.61-.582l.354-.323c.519-.474.852-.779 1.047-1.016l.043-.054-.066-.017c-.298-.07-.748-.112-1.447-.175l-.18-.016a11 11 0 0 1-1.007-.12 2.04 2.04 0 0 1-.857-.353 2 2 0 0 1-.583-.72c-.133-.252-.26-.569-.404-.93l-.037-.093c-.282-.703-.468-1.162-.634-1.453L8 2.779zm.11-8.352-.007.005zm5.292 4.14q0 .002-.006-.004zm-.066-.182.002-.007z" clip-rule="evenodd"/>
</svg>
