<svg xmlns="http://www.w3.org/2000/svg" fill="none" viewBox="0 0 24 24">
  <path fill="currentColor" d="M19.75 2A2.25 2.25 0 0 1 22 4.25v5.462a3.25 3.25 0 0 1-.952 2.298l-8.5 8.503a3.255 3.255 0 0 1-4.597.001L3.489 16.06a3.25 3.25 0 0 1-.003-4.596l8.5-8.51A3.25 3.25 0 0 1 14.284 2zm0 1.5h-5.465c-.465 0-.91.185-1.239.513l-8.512 8.523a1.75 1.75 0 0 0 .015 2.462l4.461 4.454a1.755 1.755 0 0 0 2.477 0l8.5-8.503a1.75 1.75 0 0 0 .513-1.237V4.25a.75.75 0 0 0-.75-.75M17 5.502a1.5 1.5 0 1 1 0 3 1.5 1.5 0 0 1 0-3"/>
  <path fill="currentColor" fill-rule="evenodd" d="M12.689 20.654a3.455 3.455 0 0 1-4.88.002L3.349 16.2a3.45 3.45 0 0 1-.004-4.88l8.5-8.509a3.45 3.45 0 0 1 2.44-1.012h5.466a2.45 2.45 0 0 1 2.45 2.45v5.462a3.45 3.45 0 0 1-1.01 2.44l-8.501 8.502Zm-9.2-4.595 4.462 4.455a3.255 3.255 0 0 0 4.596-.001l8.501-8.503A3.25 3.25 0 0 0 22 9.712V4.25A2.25 2.25 0 0 0 19.75 2h-5.465a3.25 3.25 0 0 0-2.3.953l-8.5 8.51a3.25 3.25 0 0 0 .004 4.596m1.06-1.061 4.461 4.454a1.755 1.755 0 0 0 2.477 0l8.5-8.503a1.75 1.75 0 0 0 .513-1.237V4.25a.75.75 0 0 0-.75-.75h-5.465c-.465 0-.91.185-1.239.513l-8.512 8.523a1.75 1.75 0 0 0 .015 2.462m.128-2.322a1.55 1.55 0 0 0 .013 2.18l4.461 4.455a1.555 1.555 0 0 0 2.195 0l8.5-8.503c.29-.29.454-.685.454-1.096V4.25a.55.55 0 0 0-.55-.55h-5.465a1.55 1.55 0 0 0-1.097.455l-8.51 8.52ZM17 5.302a1.7 1.7 0 1 1 0 3.4 1.7 1.7 0 0 1 0-3.4m1.5 1.7a1.5 1.5 0 1 0-3 0 1.5 1.5 0 0 0 3 0" clip-rule="evenodd"/>
</svg>
