<svg xmlns="http://www.w3.org/2000/svg" fill="none" viewBox="0 0 346 73">
    <path fill="currentColor" d="m48.58 55.472-2.594-32.516h-.333L34.413 55.14h-7.448l-11.24-32.183h-.328l-2.594 32.516H.298L5.22.612h13.302L30.69 32.264 42.861.611h13.297l4.922 54.86h-12.5Z"/>
    <path fill="currentColor" d="M63.257 51.248c-3.192-3.48-4.786-7.745-4.786-12.802 0-5.052 1.594-9.328 4.786-12.833 3.193-3.5 7.25-5.25 12.167-5.25 4.526 0 8.25 1.416 11.172 4.255v-3.26h11.77v34.114H86.732v-3.86h-.135c-2.922 3.24-6.646 4.86-11.172 4.86-4.917 0-8.974-1.745-12.167-5.224Zm10.006-18.583c-1.527 1.505-2.292 3.432-2.292 5.78 0 2.355.729 4.272 2.192 5.756 1.464 1.484 3.391 2.23 5.787 2.23 2.307 0 4.203-.756 5.688-2.261 1.484-1.51 2.223-3.417 2.223-5.724 0-2.35-.76-4.276-2.291-5.781-1.531-1.51-3.401-2.26-5.62-2.26-2.26 0-4.156.75-5.688 2.26Z"/>
    <path fill="currentColor" d="M127.018 21.357h13.563l-26.797 51.407h-13.568l11.771-22.61-16.156-28.797h13.562l9.511 17.49 8.114-17.49Z"/>
    <path fill="currentColor" d="M169.762.612v10.97h-19.218v10.905h17.755v10.974h-17.755v22.01h-12.5V.613h31.718Zm35.3 39.433h-24.735c0 2.396.776 4.166 2.328 5.317 1.553 1.157 3.235 1.73 5.053 1.73 1.906 0 3.416-.256 4.52-.766 1.11-.505 2.375-1.516 3.792-3.02l8.51 4.254c-3.546 5.938-9.442 8.912-17.687 8.912-5.141 0-9.552-1.766-13.234-5.292-3.678-3.52-5.516-7.765-5.516-12.734 0-4.964 1.838-9.219 5.516-12.766 3.682-3.547 8.093-5.317 13.234-5.317 5.411 0 9.807 1.562 13.203 4.687 3.391 3.125 5.083 7.588 5.083 13.396 0 .802-.02 1.333-.067 1.599Zm-24.401-6.516h12.963c-.265-1.776-.963-3.14-2.094-4.094-1.13-.953-2.583-1.427-4.354-1.427-1.953 0-3.5.51-4.656 1.532-1.151 1.015-1.771 2.349-1.859 3.99Z"/>
    <path fill="currentColor" d="M220.28 20.363c1.953 0 3.88.218 5.787.66 1.906.444 3.323.892 4.255 1.334l1.396.662-3.854 7.713c-2.662-1.416-5.188-2.125-7.584-2.125-1.328 0-2.271.146-2.823.433-.557.286-.833.828-.833 1.63 0 .177.021.354.068.531.041.177.13.344.265.5.131.151.256.287.365.396.109.11.302.234.568.364.265.136.474.235.63.303.156.067.411.166.765.296.355.136.62.235.797.302.177.068.474.167.896.297.422.136.745.224.964.266 1.375.401 2.573.844 3.593 1.333 1.021.485 2.094 1.151 3.224 1.995a8.503 8.503 0 0 1 2.625 3.193c.625 1.281.933 2.745.933 4.385 0 7.76-5.386 11.64-16.157 11.64-2.437 0-4.755-.38-6.953-1.135-2.192-.75-3.776-1.505-4.75-2.26l-1.463-1.193 4.786-8.047c.354.308.818.672 1.396 1.094.578.422 1.62 1 3.125 1.73 1.51.734 2.818 1.098 3.922 1.098 2.443 0 3.661-.823 3.661-2.458 0-.755-.312-1.344-.932-1.766-.62-.422-1.672-.895-3.161-1.427-1.485-.531-2.646-1.02-3.49-1.463-2.125-1.11-3.812-2.36-5.052-3.76-1.245-1.397-1.865-3.245-1.865-5.553 0-3.458 1.344-6.15 4.026-8.078 2.683-1.927 6.308-2.89 10.87-2.89Z"/>
    <path fill="currentColor" d="M234.968 21.357V8.66h11.771v12.698h7.183v8.98h-7.183v10.838c0 3.146.886 4.719 2.662 4.719.442 0 .906-.089 1.396-.266.484-.177.864-.354 1.13-.531l.396-.266 2.927 9.51c-2.526 1.417-5.407 2.13-8.646 2.13-2.214 0-4.12-.39-5.719-1.166-1.594-.776-2.802-1.818-3.62-3.125a13.94 13.94 0 0 1-1.765-4.125c-.355-1.437-.532-2.979-.532-4.62v-13.1h-4.921v-8.979h4.921Z"/>
    <path fill="currentColor" d="M261.63 41.243c2.125 0 3.932.74 5.416 2.224 1.485 1.49 2.23 3.291 2.23 5.422 0 2.083-.745 3.87-2.23 5.354-1.484 1.484-3.291 2.229-5.416 2.229-2.084 0-3.87-.745-5.354-2.23-1.485-1.484-2.23-3.27-2.23-5.353 0-2.13.745-3.933 2.23-5.422 1.484-1.485 3.27-2.224 5.354-2.224Zm19.077-19.886 8.313 18.552 8.312-18.552h13.964l-18.287 34.115h-7.979l-18.286-34.115h13.963Z"/>
    <path fill="currentColor" d="M308.757 55.472V21.357h11.771v3.594h.13c3.063-3.063 6.318-4.588 9.776-4.588 1.688 0 3.36.218 5.021.66a18.265 18.265 0 0 1 4.792 2.063c1.526.933 2.771 2.25 3.724 3.959.953 1.708 1.427 3.687 1.427 5.953v22.474h-11.771V36.185c0-1.77-.563-3.323-1.693-4.65-1.13-1.334-2.604-1.995-4.422-1.995-1.776 0-3.38.687-4.823 2.057-1.442 1.375-2.161 2.906-2.161 4.588v19.287h-11.771Z"/>
</svg>