<svg width="48" height="48" viewBox="0 0 48 48" fill="none"
    xmlns="http://www.w3.org/2000/svg">
    <path d="M34.4824 9.85709L34.4703 3.98474L39.5018 9.85709H34.4824Z" stroke="currentColor"/>
    <path d="M13.0417 43.8571H36.4583V44.9286C36.4583 45.2134 36.3456 45.4861 36.1456 45.6869C35.9456 45.8876 35.6749 46 35.393 46H8.56522C8.28334 46 8.01261 45.8876 7.8127 45.6869L7.45844 46.0397L7.81269 45.6869C7.61271 45.4861 7.5 45.2134 7.5 44.9286V8.78571C7.5 8.50092 7.61271 8.22818 7.81269 8.0274C8.01262 7.82669 8.28335 7.71429 8.56522 7.71429H9.4113V40.2143C9.4113 41.1798 9.79332 42.1062 10.4739 42.7895C11.1546 43.4729 12.0782 43.8571 13.0417 43.8571ZM13.0417 3H30.3539V11.9286C30.3539 12.4773 30.571 13.004 30.9581 13.3926C31.3453 13.7813 31.8708 14 32.4191 14H40.9348V40.2143C40.9348 40.4991 40.8221 40.7718 40.6221 40.9726C40.4222 41.1733 40.1514 41.2857 39.8696 41.2857H13.0417C12.7599 41.2857 12.4891 41.1733 12.2892 40.9726C12.0892 40.7718 11.9765 40.4991 11.9765 40.2143V4.07143C11.9765 3.78663 12.0892 3.51389 12.2892 3.31311C12.4891 3.1124 12.7599 3 13.0417 3Z" stroke="#EEEEEE"/>
</svg>
