<svg width="48" height="49" viewBox="0 0 48 49" fill="none"
    xmlns="http://www.w3.org/2000/svg">
    <path d="M30.5811 22.3732L30.3119 22.6371L28.4684 24.4312L28.4677 24.4319C28.0861 24.8048 27.9092 25.3426 28.0026 25.8713C28.0027 25.872 28.0028 25.8726 28.0029 25.8733L28.4963 28.7732L28.4966 28.7746C28.5366 29.0059 28.4417 29.2423 28.2474 29.3847C28.0556 29.5232 27.8023 29.5414 27.5917 29.4311C27.5916 29.4311 27.5915 29.4311 27.5914 29.431L25.2473 28.199V28.1951L24.9774 28.0552C24.5051 27.8102 23.9426 27.8102 23.4703 28.0552L23.4703 28.0551L23.4668 28.057L20.8604 29.4351C20.8602 29.4352 20.86 29.4353 20.8597 29.4355C20.6491 29.5455 20.396 29.5272 20.2044 29.3887C20.0102 29.2463 19.9152 29.01 19.9553 28.7787L19.9554 28.7779L20.3823 26.2858H20.384L20.4555 25.8707C20.5463 25.3431 20.3703 24.8053 19.9882 24.432L19.9878 24.4316L17.8739 22.3703L17.8441 22.3412C17.6981 22.1778 17.6483 21.9459 17.7169 21.7347L17.7171 21.7341C17.7902 21.5081 17.9859 21.3433 18.2195 21.3097L18.2208 21.3095L21.1426 20.8823L21.1441 20.8821C21.6706 20.8036 22.1281 20.4741 22.3635 19.9922C22.3637 19.9919 22.3639 19.9916 22.364 19.9912L23.667 17.3487L23.6672 17.3484C23.7712 17.137 23.9878 17.002 24.2249 17.002C24.462 17.002 24.6786 17.137 24.7826 17.3484L24.7831 17.3493L26.0939 19.9993C26.0942 19.9998 26.0944 20.0003 26.0946 20.0007C26.3301 20.4824 26.7875 20.8116 27.3139 20.8902L27.3166 20.8906L30.2343 21.3097L30.2344 21.3097C30.4692 21.3434 30.6651 21.5075 30.7395 21.7341L30.7395 21.7341C30.8129 21.9579 30.7527 22.205 30.5811 22.3732Z" stroke="currentColor"/>
    <path d="M37.2283 22.3174C36.9119 15.4519 31.2222 9.9561 24.3268 9.90683H24.3266M37.2283 22.3174L24.3286 9.40683L24.3266 9.69559L24.3251 9.90682C24.3256 9.90682 24.3261 9.90683 24.3266 9.90683M37.2283 22.3174L37.2353 22.5544C37.3522 26.5102 35.6582 30.3022 32.6345 32.8543C31.506 33.8013 30.8046 35.1517 30.6685 36.6042H17.7909C17.6564 35.1555 16.9571 33.8076 15.8329 32.8628C13.0916 30.5461 11.4284 27.2022 11.2353 23.6185L37.2283 22.3174ZM24.3266 9.90683H24.323V9.90682C20.7354 9.88147 17.2958 11.3399 14.8172 13.9354C12.3391 16.5305 11.0443 20.0345 11.2353 23.6182L24.3266 9.90683Z" stroke="#EEEEEE"/>
    <path d="M19.392 39.103H29.0665C29.9084 39.103 30.5913 39.7845 30.5913 40.6278C30.5913 41.4693 29.908 42.1526 29.0665 42.1526H19.392C18.5504 42.1526 17.8672 41.4693 17.8672 40.6278C17.8672 39.7846 18.5501 39.103 19.392 39.103Z" stroke="#EEEEEE"/>
    <path d="M27.3567 47.532H21.098C20.2565 47.532 19.5732 46.8487 19.5732 46.0072C19.5732 45.1657 20.2565 44.4824 21.098 44.4824H27.3566C28.1998 44.4824 28.8814 45.1654 28.8814 46.0072C28.8814 46.8491 28.1999 47.532 27.3567 47.532Z" stroke="#EEEEEE"/>
    <path d="M24.2315 7.50962C23.8954 7.50962 23.624 7.2383 23.624 6.90217V0.639439C23.624 0.303319 23.8954 0.0319824 24.2315 0.0319824C24.5676 0.0319824 24.8389 0.303309 24.8389 0.639439V6.90217C24.8389 7.23829 24.5676 7.50962 24.2315 7.50962Z" fill="#EEEEEE"/>
    <path d="M37.4311 13.7825C37.1557 13.7825 36.9148 13.5983 36.8439 13.333C36.773 13.0658 36.8885 12.7863 37.1274 12.6487L42.5561 9.51828C42.8477 9.35022 43.2182 9.44943 43.3863 9.74101C43.5543 10.0306 43.4551 10.4031 43.1636 10.5712L37.7349 13.7056C37.6417 13.7562 37.5364 13.7846 37.4311 13.7825Z" fill="#EEEEEE"/>
    <path d="M11.0314 13.7827C10.9241 13.7827 10.8208 13.7544 10.7277 13.7017L5.30314 10.5673C5.01359 10.3992 4.91438 10.0287 5.08041 9.7371C5.24847 9.44553 5.62105 9.34631 5.9106 9.51437L11.3331 12.6447H11.3351C11.574 12.7824 11.6894 13.0639 11.6186 13.3291C11.5477 13.5944 11.3068 13.7807 11.0314 13.7786L11.0314 13.7827Z" fill="#EEEEEE"/>
    <path d="M31.5088 8.96747C31.2921 8.96747 31.0917 8.85206 30.9843 8.66375C30.875 8.47746 30.875 8.24461 30.9843 8.05629L34.1147 2.63381H34.1168C34.1937 2.49207 34.3273 2.38679 34.4853 2.34224C34.6412 2.29972 34.8092 2.31997 34.951 2.40096C35.0927 2.48398 35.194 2.61761 35.2344 2.77555C35.277 2.93349 35.2527 3.10155 35.1676 3.24126L32.0372 8.66374H32.0352C31.9279 8.85204 31.7274 8.96949 31.5088 8.96747Z" fill="#EEEEEE"/>
    <path d="M16.9541 8.96746C16.7354 8.96949 16.535 8.85204 16.4277 8.66374L13.2973 3.24126C13.2122 3.10155 13.1879 2.93349 13.2305 2.77555C13.271 2.61761 13.3722 2.48398 13.5139 2.40096C13.6557 2.31997 13.8237 2.29972 13.9796 2.34224C14.1376 2.38678 14.2712 2.49207 14.3502 2.63381L17.4806 8.05629C17.5899 8.2446 17.5899 8.47745 17.4806 8.66375C17.3732 8.85205 17.1728 8.96746 16.9541 8.96746Z" fill="#EEEEEE"/>
</svg>
