<svg xmlns="http://www.w3.org/2000/svg"
    xmlns:xlink="http://www.w3.org/1999/xlink" xml:space="preserve" viewBox="0 0 48 48" fill="none">
    <path d="M36.5 16c-.5.5-1.2.8-2 .8s-1.4-.3-2-.8c-.5-.5-.8-1.2-.8-2 0-.7.3-1.4.8-2 .5-.5 1.2-.8 2-.8s1.4.3 2 .8c.5.5.8 1.2.8 2 0 .7-.3 1.4-.8 2z" stroke="currentColor" />
    <path d="m16.3 34.8-2.6-2.6c-.6-.6-.8-1.4-.5-2.1.2-.7.6-1.7 1-2.8l.2-.7H5c-.5 0-1-.3-1.3-.7q-.45-.75 0-1.5h0L8 17.2h0c1-1.6 2.7-2.7 4.6-2.7h7.1l.1-.2.6-.9c6.6-9.7 16.3-10 22.2-8.9h0c.7.1 1.3.7 1.5 1.5 1.1 5.9.7 15.6-8.9 22.2h0c-.5.4-1.2.6-1.2.6v7.1c0 1.9-1 3.7-2.6 4.6h0l-7.3 4.3h0q-.75.45-1.5 0c-.75-.45-.7-.7-.7-1.3V34l-.7.2c-1.2.4-2.2.7-2.9 1s-1.4.1-2-.4" style="fill:none;stroke:#eee;stroke-linecap:round;stroke-linejoin:round"/>
</svg>