<svg width="48" height="48" viewBox="0 0 48 48" fill="none"
    xmlns="http://www.w3.org/2000/svg">
    <path d="M15.2719 24.7883H31.9581L23.615 42.0378L15.2719 24.7883Z" stroke="#EEEEEE"/>
    <path d="M17.0045 16.0585H30.2223L32.2337 21.8956H14.9949L17.0045 16.0585Z" stroke="#EEEEEE"/>
    <path d="M42.1535 20.97L29.9896 35.4914L30.2384 34.9774L30.2384 34.9773L35.35 24.4117L42.1535 20.97Z" stroke="#EEEEEE"/>
    <path d="M11.8789 24.4117L17.239 35.4935L5.07296 20.9696L11.8789 24.4117Z" stroke="#EEEEEE"/>
    <path d="M12.1376 21.3045L1.81965 16.0843L6.2231 11.3638L14.194 15.341L12.1376 21.3045Z" stroke="#EEEEEE"/>
    <path d="M31.0462 6L37.9953 8.13677L38.9469 9.159L30.9143 13.1658H16.3128L8.28109 9.15922L9.23411 8.13682L16.1834 6H31.0462Z" stroke="currentColor"/>
    <path d="M33.0326 15.3409L41.0039 11.3637L45.4091 16.0843L35.0891 21.3044L33.0326 15.3409Z" stroke="#EEEEEE"/>
</svg>
