<svg width="48" height="49" viewBox="0 0 48 49" fill="none"
    xmlns="http://www.w3.org/2000/svg">
    <path d="M19.9236 7.6317V7.63156C19.9236 7.09455 20.3552 6.66479 20.8809 6.66479H33.3284C33.8541 6.66479 34.2858 7.09456 34.2858 7.63156V16.9465C34.2858 17.4835 33.8541 17.9133 33.3284 17.9133H20.8809C20.3558 17.9133 19.9231 17.4839 19.9209 16.9457L19.9236 7.6317Z" stroke="currentColor"/>
    <path d="M38.393 45.3585V45.8585H38.893H39.3487L39.3482 45.862H39.9194C40.5012 45.862 40.9783 46.3375 40.9783 46.931C40.9783 47.5245 40.5012 48 39.9194 48H14.2897C13.7047 48 13.2282 47.5239 13.2282 46.931C13.2282 46.338 13.7047 45.862 14.2897 45.862H14.7897V45.8593H15.3165H15.8165V45.3593V31.7113V31.0775L15.2001 31.2251C14.3105 31.438 13.6855 32.2351 13.6855 33.1512V37.6533C13.6829 38.6977 13.2359 39.6887 12.4563 40.3765C11.6804 41.0606 10.6478 41.3767 9.62515 41.2416C7.80985 40.9602 6.47443 39.3743 6.50037 37.5181H6.50042V37.5112V12.8356C6.5028 12.1601 6.85225 11.5352 7.42099 11.1825C7.42119 11.1824 7.4214 11.1822 7.42161 11.1821L12.8553 7.83021C12.8555 7.83012 12.8556 7.83002 12.8558 7.82993C12.8806 7.81493 12.9101 7.81117 12.9336 7.8169C12.9597 7.82324 12.9843 7.8413 12.998 7.86402L12.9989 7.86549L13.8857 9.32264C13.8858 9.32281 13.8859 9.32298 13.886 9.32315C13.9199 9.37986 13.8994 9.44588 13.8524 9.47463L13.8507 9.47571L10.9066 11.2923L10.6692 11.4388V11.7178V14.7967C10.6692 15.7818 9.87991 16.5781 8.90645 16.5844L8.40968 16.5876V17.0844L8.40966 37.6538L8.40969 37.6576C8.41345 38.149 8.62736 38.6218 9.0084 38.9444C9.38594 39.2664 9.88865 39.4044 10.3773 39.3198L10.3856 39.3184L10.3938 39.3167C11.2134 39.1464 11.7892 38.4148 11.7734 37.5813L11.7734 33.149C11.7734 33.1489 11.7734 33.1488 11.7734 33.1487C11.776 31.1055 13.3377 29.4118 15.3526 29.2547L15.8138 29.2188V28.7562V3.6892C15.8138 2.20244 17.0125 1 18.4851 1H35.7244C37.1964 1 38.393 2.20189 38.393 3.6892V45.3585Z" stroke="#EEEEEE"/>
</svg>
