<svg width="48" height="49" viewBox="0 0 48 49" fill="none"
    xmlns="http://www.w3.org/2000/svg">
    <path d="M27.7601 27.7922H20.2402V20.2715H27.7601V27.7922Z" stroke="currentColor"/>
    <path d="M30.2819 18.2474C30.1627 18.0407 29.9904 17.8684 29.7837 17.7492L36.4574 11.0766C36.5762 11.2824 36.7478 11.4542 36.9538 11.5731L30.2819 18.2474ZM1.5021 46.532V39.0134H9.01986V46.532H1.5021ZM46.5 46.532H38.9822V39.0134H46.5V46.532ZM29.7864 30.3149C29.9931 30.1957 30.1653 30.0234 30.2845 29.8167L36.9566 36.491C36.7507 36.6098 36.579 36.7814 36.46 36.9874L29.7864 30.3149ZM18.2158 30.3149L11.5421 36.9875C11.4233 36.7817 11.2517 36.6099 11.0457 36.491L17.7176 29.8167C17.8368 30.0234 18.0091 30.1957 18.2158 30.3149ZM11.0455 11.5731C11.2514 11.4543 11.4232 11.2827 11.5421 11.0767L18.2157 17.7493C18.009 17.8684 17.8367 18.0407 17.7175 18.2474L11.0455 11.5731ZM38.9801 9.05057V1.53198H46.4979V9.05057H38.9801ZM9.01776 9.05057H1.5V1.53198H9.01776V9.05057Z" stroke="#EEEEEE"/>
</svg>
