<svg width="48" height="48" viewBox="0 0 48 48" fill="none"
    xmlns="http://www.w3.org/2000/svg">
    <path d="M26.1766 33.3658L17.3098 25.3857C12.7389 25.5539 9.07754 29.3223 9.07754 33.9391C9.07754 34.2372 9.09282 34.5353 9.1234 34.8258C9.26098 36.1634 8.34374 37.6081 6.99844 37.6081H6.63154C5.2786 37.6081 4.18555 38.7011 4.18555 40.0541C4.18555 41.407 5.2786 42.5001 6.63154 42.5001H17.6385C22.37 42.5001 26.1995 38.6705 26.1995 33.9391C26.1995 33.748 26.1918 33.5569 26.1842 33.3658H26.1766Z" stroke="currentColor"/>
    <path d="M27.3484 30.9376C29.4351 30.6395 31.3155 29.4547 32.485 27.6584L44.8449 8.54143C45.808 7.0509 45.5634 5.07882 44.264 3.86347C42.9645 2.64811 40.9848 2.5411 39.5631 3.61122L21.4703 17.1865C19.6359 18.5624 18.5504 20.7103 18.5352 23.0034L27.3484 30.9376Z" stroke="#EEEEEE"/>
</svg>
