<svg width="48" height="49" viewBox="0 0 48 49" fill="none"
    xmlns="http://www.w3.org/2000/svg">
    <path d="M40.1854 7.14024V5.93287L39.3318 6.78674L21.8602 24.2637L21.8588 24.2651C21.852 24.2719 21.844 24.2773 21.8351 24.2811C21.8262 24.2848 21.8166 24.2867 21.8069 24.2867C21.7972 24.2867 21.7876 24.2848 21.7787 24.2811C21.7704 24.2776 21.7628 24.2727 21.7564 24.2665C21.7422 24.2514 21.7344 24.2315 21.7344 24.2109C21.7344 24.1903 21.7423 24.1703 21.7566 24.1551L39.2252 6.68109L40.0785 5.82759H38.8716H34.883C34.8621 5.82759 34.8423 5.81932 34.8278 5.80482C34.8133 5.79035 34.8053 5.77087 34.8053 5.75071C34.8053 5.73055 34.8133 5.71107 34.8278 5.6966C34.8423 5.6821 34.8621 5.67383 34.883 5.67383H40.255C40.2765 5.67431 40.2968 5.68305 40.3118 5.69805C40.3268 5.713 40.3353 5.73299 40.3358 5.75381V11.0989C40.3321 11.1131 40.3243 11.126 40.3132 11.1361C40.2989 11.1491 40.2802 11.1564 40.2606 11.1564C40.241 11.1564 40.2223 11.1491 40.208 11.1361C40.1969 11.126 40.1891 11.1131 40.1854 11.0989V7.14024Z" stroke="currentColor"/>
    <path d="M44.0847 37.857H20.0413V29.0516H20.0413L20.0413 29.0458C20.0318 28.2348 19.7034 27.4601 19.127 26.8891C18.5507 26.318 17.7727 25.9964 16.9611 25.9933H16.9592H8.17084V1.96328H8.17086L8.17083 1.95935C8.16936 1.77284 8.20482 1.58786 8.27518 1.41505C8.34554 1.24223 8.44943 1.08495 8.58091 0.952281C8.7124 0.819605 8.86888 0.714148 9.04139 0.642005C9.21371 0.569938 9.39862 0.532544 9.58548 0.531982H44.0853C44.2722 0.532544 44.4571 0.569938 44.6294 0.642005C44.8019 0.714149 44.9584 0.819607 45.0899 0.952279C45.2214 1.08495 45.3252 1.24223 45.3956 1.41505C45.466 1.58786 45.5014 1.77283 45.4999 1.95934V1.96328V36.4407C45.4999 36.8155 45.3511 37.175 45.0859 37.4406C44.8206 37.7062 44.4606 37.856 44.0847 37.857ZM1.43671 45.532C1.18862 45.532 0.950781 45.4338 0.775259 45.2591C0.599946 45.0847 0.501071 44.8482 0.5 44.6014V29.0545C0.503185 28.8086 0.602847 28.5736 0.777838 28.4001C0.95318 28.2262 1.19008 28.1281 1.43746 28.127H16.9573C17.2039 28.1291 17.4398 28.2276 17.6143 28.4012C17.7886 28.5747 17.8878 28.8092 17.8909 29.0545V44.6015C17.8898 44.8477 17.7914 45.0837 17.6168 45.258C17.4423 45.4323 17.2056 45.5309 16.9585 45.532C16.9581 45.532 16.9578 45.532 16.9575 45.532L1.43671 45.532Z" stroke="#EEEEEE"/>
</svg>
