<svg width="48" height="48" viewBox="0 0 48 48" fill="none"
    xmlns="http://www.w3.org/2000/svg">
    <path d="M40.6684 7.73123L40.6684 7.73133L40.6781 7.73325C40.8658 7.7708 41.0096 7.94553 41.0096 8.14904V17.4687C41.0096 26.1989 36.856 34.4624 29.8228 39.6314L29.8218 39.6322L24.0402 43.9037L24.0373 43.9058C23.8699 44.0314 23.6829 44.0314 23.5155 43.9058L23.5126 43.9037L17.731 39.6322L17.7288 39.6306C10.6529 34.4614 6.5 26.2414 6.5 17.4687V8.14904C6.5 7.94553 6.64383 7.7708 6.83155 7.73325L6.83157 7.73335L6.84116 7.73123L23.6683 4.02063L23.6939 4.01499L23.7188 4.0067C23.7456 3.99777 23.764 3.99777 23.7908 4.0067L23.8157 4.01499L23.8413 4.02063L40.6684 7.73123Z" stroke="#EEEEEE"/>
    <path d="M16.4053 22.8611L22.0997 28.5555L33.4886 17.1666" stroke="currentColor" stroke-linecap="round" stroke-linejoin="round"/>
</svg>
