<svg width="48" height="48" viewBox="0 0 48 48" fill="none"
    xmlns="http://www.w3.org/2000/svg">
    <path d="M42.045 40.6979L42.0452 40.6977C42.8455 39.8969 43.3467 38.7861 43.3467 37.5644V32.9377V32.4377H42.8467H34.2192C31.9083 32.4377 30.0113 30.5407 30.0113 28.2299V27.2342C30.0113 24.9234 31.9083 23.0264 34.2192 23.0264H42.8467H43.3467V22.5264V17.8993C43.3467 16.6776 42.8458 15.5663 42.0416 14.7676C41.2396 13.9649 40.13 13.4636 38.9115 13.4636H11.3046C10.4037 13.4636 9.76416 13.1265 9.34411 12.6471C8.91552 12.1579 8.69016 11.4903 8.69055 10.8053C8.69095 10.1203 8.91709 9.45253 9.34608 8.96312C9.76655 8.48343 10.4058 8.14649 11.3046 8.14649H34.0151C34.8841 8.14649 35.5886 7.44198 35.5886 6.573C35.5886 5.70436 34.8839 5 34.0151 5H11.3046C8.10614 5 5.5 7.60795 5.5 10.806V10.8341V33.2709C5.5 38.0687 9.43075 42 14.2291 42H38.9115C40.1333 42 41.2441 41.4988 42.045 40.6979ZM42.8467 32.2095H43.3467V31.7095V23.7546V23.2546H42.8467H34.2192C32.0272 23.2546 30.2395 25.0423 30.2395 27.2342V28.2299C30.2395 30.4218 32.0272 32.2095 34.2192 32.2095H42.8467Z" stroke="#EEEEEE"/>
    <path d="M34.6553 25.6032L34.6552 25.6032L34.6545 25.604C34.1113 26.1483 33.7725 26.9018 33.7725 27.7318C33.7725 28.5391 34.0926 29.2727 34.6084 29.8127L34.6414 29.8483L34.648 29.8555L34.6549 29.8624C35.1994 30.4069 35.9542 30.7448 36.7855 30.7448C37.6173 30.7448 38.3716 30.4069 38.9161 29.8624C39.4606 29.3179 39.7985 28.5636 39.7985 27.7318C39.7985 26.9006 39.4607 26.1454 38.9131 25.6006C38.3692 25.0574 37.6162 24.7188 36.7855 24.7188C35.9551 24.7188 35.2018 25.0578 34.6553 25.6032Z" stroke="currentColor"/>
</svg>
